<svg xmlns="http://www.w3.org/2000/svg" width="20" height="34" viewBox="0 0 20 34" fill="none">
    <path fill-rule="evenodd" clip-rule="evenodd"
        d="M15.6808 21.3154C15.7561 21.3909 15.8159 21.4806 15.8566 21.5793C15.8974 21.678 15.9184 21.7839 15.9184 21.8907C15.9184 21.9976 15.8974 22.1035 15.8566 22.2022C15.8159 22.3009 15.7561 22.3906 15.6808 22.4661L10.8293 27.3418C10.6775 27.4944 10.4716 27.5801 10.2569 27.5801C10.0421 27.5801 9.83622 27.4944 9.68439 27.3418C9.53256 27.1892 9.44727 26.9823 9.44727 26.7665C9.44727 26.5507 9.53256 26.3437 9.68439 26.1911L14.5359 21.3154C14.611 21.2397 14.7002 21.1797 14.7985 21.1387C14.8967 21.0977 15.002 21.0767 15.1084 21.0767C15.2147 21.0767 15.32 21.0977 15.4183 21.1387C15.5165 21.1797 15.6057 21.2397 15.6808 21.3154Z"
        fill="#007E27" />
    <path fill-rule="evenodd" clip-rule="evenodd"
        d="M4.83325 21.3154C4.90836 21.2397 4.99759 21.1797 5.09583 21.1387C5.19406 21.0977 5.29937 21.0767 5.40573 21.0767C5.51209 21.0767 5.6174 21.0977 5.71563 21.1387C5.81387 21.1797 5.9031 21.2397 5.97821 21.3154L10.8297 26.1911C10.9049 26.2667 10.9645 26.3564 11.0052 26.4551C11.0459 26.5538 11.0668 26.6596 11.0668 26.7665C11.0668 26.8733 11.0459 26.9791 11.0052 27.0779C10.9645 27.1766 10.9049 27.2663 10.8297 27.3418C10.7545 27.4174 10.6653 27.4773 10.567 27.5182C10.4688 27.5591 10.3635 27.5801 10.2572 27.5801C10.1509 27.5801 10.0456 27.5591 9.9474 27.5182C9.84917 27.4773 9.75992 27.4174 9.68474 27.3418L4.83325 22.4661C4.75795 22.3906 4.69821 22.3009 4.65745 22.2022C4.61669 22.1035 4.5957 21.9976 4.5957 21.8907C4.5957 21.7838 4.61669 21.678 4.65745 21.5793C4.69821 21.4806 4.75795 21.3909 4.83325 21.3154Z"
        fill="#007E27" />
    <path fill-rule="evenodd" clip-rule="evenodd"
        d="M10.2568 26.7665C10.0424 26.7665 9.83671 26.6809 9.68507 26.5285C9.53343 26.3761 9.44824 26.1694 9.44824 25.9539V10.514C9.44824 10.2985 9.53343 10.0918 9.68507 9.93943C9.83671 9.78703 10.0424 9.70142 10.2568 9.70142C10.4713 9.70142 10.6769 9.78703 10.8286 9.93943C10.9802 10.0918 11.0654 10.2985 11.0654 10.514V25.9539C11.0654 26.1694 10.9802 26.3761 10.8286 26.5285C10.6769 26.6809 10.4713 26.7665 10.2568 26.7665Z"
        fill="#007E27" />
</svg>