<svg xmlns="http://www.w3.org/2000/svg" width="40" height="40" viewBox="0 0 40 40" fill="none">
    <g clip-path="url(#clip0_69_1535)">
        <path
            d="M19.9997 3.33325C24.528 3.33325 25.093 3.34992 26.8697 3.43325C28.6447 3.51659 29.853 3.79492 30.9163 4.20825C32.0163 4.63159 32.943 5.20492 33.8697 6.12992C34.7172 6.96308 35.3729 7.9709 35.7913 9.08325C36.203 10.1449 36.483 11.3549 36.5663 13.1299C36.6447 14.9066 36.6663 15.4716 36.6663 19.9999C36.6663 24.5283 36.6497 25.0933 36.5663 26.8699C36.483 28.6449 36.203 29.8533 35.7913 30.9166C35.3741 32.0295 34.7182 33.0376 33.8697 33.8699C33.0363 34.7171 32.0285 35.3728 30.9163 35.7916C29.8547 36.2033 28.6447 36.4833 26.8697 36.5666C25.093 36.6449 24.528 36.6666 19.9997 36.6666C15.4713 36.6666 14.9063 36.6499 13.1297 36.5666C11.3547 36.4833 10.1463 36.2033 9.08301 35.7916C7.97022 35.374 6.96222 34.7182 6.12967 33.8699C5.28202 33.0369 4.62623 32.029 4.20801 30.9166C3.79467 29.8549 3.51634 28.6449 3.43301 26.8699C3.35467 25.0933 3.33301 24.5283 3.33301 19.9999C3.33301 15.4716 3.34967 14.9066 3.43301 13.1299C3.51634 11.3533 3.79467 10.1466 4.20801 9.08325C4.62507 7.97022 5.28101 6.96212 6.12967 6.12992C6.96246 5.28197 7.97039 4.62613 9.08301 4.20825C10.1463 3.79492 11.353 3.51659 13.1297 3.43325C14.9063 3.35492 15.4713 3.33325 19.9997 3.33325ZM19.9997 11.6666C17.7895 11.6666 15.6699 12.5446 14.1071 14.1074C12.5443 15.6702 11.6663 17.7898 11.6663 19.9999C11.6663 22.2101 12.5443 24.3297 14.1071 25.8925C15.6699 27.4553 17.7895 28.3333 19.9997 28.3333C22.2098 28.3333 24.3294 27.4553 25.8922 25.8925C27.455 24.3297 28.333 22.2101 28.333 19.9999C28.333 17.7898 27.455 15.6702 25.8922 14.1074C24.3294 12.5446 22.2098 11.6666 19.9997 11.6666ZM30.833 11.2499C30.833 10.6974 30.6135 10.1675 30.2228 9.77678C29.8321 9.38608 29.3022 9.16659 28.7497 9.16659C28.1971 9.16659 27.6672 9.38608 27.2765 9.77678C26.8858 10.1675 26.6663 10.6974 26.6663 11.2499C26.6663 11.8025 26.8858 12.3324 27.2765 12.7231C27.6672 13.1138 28.1971 13.3333 28.7497 13.3333C29.3022 13.3333 29.8321 13.1138 30.2228 12.7231C30.6135 12.3324 30.833 11.8025 30.833 11.2499ZM19.9997 14.9999C21.3258 14.9999 22.5975 15.5267 23.5352 16.4644C24.4729 17.4021 24.9997 18.6738 24.9997 19.9999C24.9997 21.326 24.4729 22.5978 23.5352 23.5355C22.5975 24.4731 21.3258 24.9999 19.9997 24.9999C18.6736 24.9999 17.4018 24.4731 16.4641 23.5355C15.5265 22.5978 14.9997 21.326 14.9997 19.9999C14.9997 18.6738 15.5265 17.4021 16.4641 16.4644C17.4018 15.5267 18.6736 14.9999 19.9997 14.9999Z"
            fill="#007E27" />
    </g>
    <defs>
        <clipPath id="clip0_69_1535">
            <rect width="40" height="40" fill="white" />
        </clipPath>
    </defs>
</svg>