<svg xmlns="http://www.w3.org/2000/svg" width="48" height="40" viewBox="0 0 48 40" fill="none">
    <path d="M8.33536 3.2437C16.4336 5.71432 24.5902 8.20092 31.8216 12.6905C33.5857 13.8009 35.2756 14.9536 36.8432 16.3236C38.2678 17.529 39.8355 18.8989 40.7825 20.4748C41.1634 21.1434 41.5866 21.8862 41.4954 22.6761C41.4625 23.4819 40.9369 24.0274 40.2364 24.5248C38.6868 25.6044 36.7244 26.1321 34.8842 26.4425C29.878 27.3268 24.7034 27.2246 19.7102 26.232C18.9363 26.0825 18.0769 26.4738 17.8531 27.29C17.6454 28.0479 18.0789 28.9816 18.9111 29.1471C23.9626 30.1557 29.047 30.3585 34.1378 29.6228C36.4181 29.3076 38.688 28.8015 40.72 27.7915C42.7679 26.7231 44.6259 24.9759 44.5496 22.5104C44.4676 20.294 43.0758 18.2828 41.6304 16.6956C40.0261 15.0022 38.2412 13.51 36.3078 12.1025C32.5576 9.31936 28.3665 7.23025 24.0794 5.49094C19.183 3.45923 14.1587 1.89394 9.11846 0.38694C7.28478 -0.241071 6.4857 2.67399 8.33536 3.2437Z" fill="#208E42"/>
    <path d="M25.6712 20.0307C22.4649 23.0381 18.9304 25.6421 15.0254 27.7684C13.8528 28.3872 14.105 30.2114 15.3876 30.563C18.0271 31.2239 20.6667 31.8848 23.2159 32.6463C25.6486 33.3758 27.8688 34.4231 29.7806 36.1382C30.3843 36.6798 31.3068 36.7446 31.9067 36.1568C32.4323 35.6114 32.529 34.5723 31.9253 34.0308C29.754 32.1192 27.2902 30.817 24.5237 29.9333C21.7572 29.0496 18.9268 28.3991 16.1124 27.6903C16.2384 28.6024 16.3645 29.5145 16.4746 30.4849C20.5865 28.2899 24.3598 25.5006 27.7466 22.292C29.2172 20.8147 27.1098 18.6699 25.6712 20.0307Z" fill="#208E42"/>
  </svg>