<svg xmlns="http://www.w3.org/2000/svg" width="165" height="165" viewBox="0 0 165 165" fill="none">
    <g clip-path="url(#clip0_69_1524)">
      <path d="M165 0H0V165H165V0Z" fill="white"/>
      <path d="M13.8338 10.3125H10.3125V13.8338H13.8338V10.3125Z" fill="#007E27"/>
      <path d="M17.3552 10.3125H13.8338V13.8338H17.3552V10.3125Z" fill="#007E27"/>
      <path d="M20.8765 10.3125H17.3552V13.8338H20.8765V10.3125Z" fill="#007E27"/>
      <path d="M24.3979 10.3125H20.8765V13.8338H24.3979V10.3125Z" fill="#007E27"/>
      <path d="M27.9192 10.3125H24.3979V13.8338H27.9192V10.3125Z" fill="#007E27"/>
      <path d="M31.4405 10.3125H27.9192V13.8338H31.4405V10.3125Z" fill="#007E27"/>
      <path d="M34.9619 10.3125H31.4405V13.8338H34.9619V10.3125Z" fill="#007E27"/>
      <path d="M42.0046 10.3125H38.4832V13.8338H42.0046V10.3125Z" fill="#007E27"/>
      <path d="M49.0473 10.3125H45.5259V13.8338H49.0473V10.3125Z" fill="#007E27"/>
      <path d="M56.0899 10.3125H52.5686V13.8338H56.0899V10.3125Z" fill="#007E27"/>
      <path d="M66.654 10.3125H63.1326V13.8338H66.654V10.3125Z" fill="#007E27"/>
      <path d="M77.218 10.3125H73.6966V13.8338H77.218V10.3125Z" fill="#007E27"/>
      <path d="M80.7393 10.3125H77.218V13.8338H80.7393V10.3125Z" fill="#007E27"/>
      <path d="M87.782 10.3125H84.2607V13.8338H87.782V10.3125Z" fill="#007E27"/>
      <path d="M98.346 10.3125H94.8247V13.8338H98.346V10.3125Z" fill="#007E27"/>
      <path d="M101.867 10.3125H98.346V13.8338H101.867V10.3125Z" fill="#007E27"/>
      <path d="M112.431 10.3125H108.91V13.8338H112.431V10.3125Z" fill="#007E27"/>
      <path d="M115.953 10.3125H112.431V13.8338H115.953V10.3125Z" fill="#007E27"/>
      <path d="M119.474 10.3125H115.953V13.8338H119.474V10.3125Z" fill="#007E27"/>
      <path d="M122.995 10.3125H119.474V13.8338H122.995V10.3125Z" fill="#007E27"/>
      <path d="M126.517 10.3125H122.995V13.8338H126.517V10.3125Z" fill="#007E27"/>
      <path d="M133.559 10.3125H130.038V13.8338H133.559V10.3125Z" fill="#007E27"/>
      <path d="M137.081 10.3125H133.559V13.8338H137.081V10.3125Z" fill="#007E27"/>
      <path d="M140.602 10.3125H137.081V13.8338H140.602V10.3125Z" fill="#007E27"/>
      <path d="M144.123 10.3125H140.602V13.8338H144.123V10.3125Z" fill="#007E27"/>
      <path d="M147.645 10.3125H144.123V13.8338H147.645V10.3125Z" fill="#007E27"/>
      <path d="M151.166 10.3125H147.645V13.8338H151.166V10.3125Z" fill="#007E27"/>
      <path d="M154.688 10.3125H151.166V13.8338H154.688V10.3125Z" fill="#007E27"/>
      <path d="M13.8338 13.8338H10.3125V17.3552H13.8338V13.8338Z" fill="#007E27"/>
      <path d="M34.9619 13.8338H31.4405V17.3552H34.9619V13.8338Z" fill="#007E27"/>
      <path d="M49.0473 13.8338H45.5259V17.3552H49.0473V13.8338Z" fill="#007E27"/>
      <path d="M52.5686 13.8338H49.0473V17.3552H52.5686V13.8338Z" fill="#007E27"/>
      <path d="M56.0899 13.8338H52.5686V17.3552H56.0899V13.8338Z" fill="#007E27"/>
      <path d="M59.6113 13.8338H56.0899V17.3552H59.6113V13.8338Z" fill="#007E27"/>
      <path d="M63.1326 13.8338H59.6113V17.3552H63.1326V13.8338Z" fill="#007E27"/>
      <path d="M70.1753 13.8338H66.654V17.3552H70.1753V13.8338Z" fill="#007E27"/>
      <path d="M73.6966 13.8338H70.1753V17.3552H73.6966V13.8338Z" fill="#007E27"/>
      <path d="M84.2607 13.8338H80.7393V17.3552H84.2607V13.8338Z" fill="#007E27"/>
      <path d="M87.782 13.8338H84.2607V17.3552H87.782V13.8338Z" fill="#007E27"/>
      <path d="M91.3034 13.8338H87.782V17.3552H91.3034V13.8338Z" fill="#007E27"/>
      <path d="M108.91 13.8338H105.389V17.3552H108.91V13.8338Z" fill="#007E27"/>
      <path d="M119.474 13.8338H115.953V17.3552H119.474V13.8338Z" fill="#007E27"/>
      <path d="M122.995 13.8338H119.474V17.3552H122.995V13.8338Z" fill="#007E27"/>
      <path d="M126.517 13.8338H122.995V17.3552H126.517V13.8338Z" fill="#007E27"/>
      <path d="M133.559 13.8338H130.038V17.3552H133.559V13.8338Z" fill="#007E27"/>
      <path d="M154.688 13.8338H151.166V17.3552H154.688V13.8338Z" fill="#007E27"/>
      <path d="M13.8338 17.3552H10.3125V20.8765H13.8338V17.3552Z" fill="#007E27"/>
      <path d="M20.8765 17.3552H17.3552V20.8765H20.8765V17.3552Z" fill="#007E27"/>
      <path d="M24.3979 17.3552H20.8765V20.8765H24.3979V17.3552Z" fill="#007E27"/>
      <path d="M27.9192 17.3552H24.3979V20.8765H27.9192V17.3552Z" fill="#007E27"/>
      <path d="M34.9619 17.3552H31.4405V20.8765H34.9619V17.3552Z" fill="#007E27"/>
      <path d="M45.5259 17.3552H42.0046V20.8765H45.5259V17.3552Z" fill="#007E27"/>
      <path d="M49.0473 17.3552H45.5259V20.8765H49.0473V17.3552Z" fill="#007E27"/>
      <path d="M52.5686 17.3552H49.0473V20.8765H52.5686V17.3552Z" fill="#007E27"/>
      <path d="M56.0899 17.3552H52.5686V20.8765H56.0899V17.3552Z" fill="#007E27"/>
      <path d="M63.1326 17.3552H59.6113V20.8765H63.1326V17.3552Z" fill="#007E27"/>
      <path d="M66.654 17.3552H63.1326V20.8765H66.654V17.3552Z" fill="#007E27"/>
      <path d="M73.6966 17.3552H70.1753V20.8765H73.6966V17.3552Z" fill="#007E27"/>
      <path d="M77.218 17.3552H73.6966V20.8765H77.218V17.3552Z" fill="#007E27"/>
      <path d="M80.7393 17.3552H77.218V20.8765H80.7393V17.3552Z" fill="#007E27"/>
      <path d="M84.2607 17.3552H80.7393V20.8765H84.2607V17.3552Z" fill="#007E27"/>
      <path d="M87.782 17.3552H84.2607V20.8765H87.782V17.3552Z" fill="#007E27"/>
      <path d="M94.8247 17.3552H91.3034V20.8765H94.8247V17.3552Z" fill="#007E27"/>
      <path d="M105.389 17.3552H101.867V20.8765H105.389V17.3552Z" fill="#007E27"/>
      <path d="M108.91 17.3552H105.389V20.8765H108.91V17.3552Z" fill="#007E27"/>
      <path d="M112.431 17.3552H108.91V20.8765H112.431V17.3552Z" fill="#007E27"/>
      <path d="M122.995 17.3552H119.474V20.8765H122.995V17.3552Z" fill="#007E27"/>
      <path d="M126.517 17.3552H122.995V20.8765H126.517V17.3552Z" fill="#007E27"/>
      <path d="M133.559 17.3552H130.038V20.8765H133.559V17.3552Z" fill="#007E27"/>
      <path d="M140.602 17.3552H137.081V20.8765H140.602V17.3552Z" fill="#007E27"/>
      <path d="M144.123 17.3552H140.602V20.8765H144.123V17.3552Z" fill="#007E27"/>
      <path d="M147.645 17.3552H144.123V20.8765H147.645V17.3552Z" fill="#007E27"/>
      <path d="M154.688 17.3552H151.166V20.8765H154.688V17.3552Z" fill="#007E27"/>
      <path d="M13.8338 20.8765H10.3125V24.3979H13.8338V20.8765Z" fill="#007E27"/>
      <path d="M20.8765 20.8765H17.3552V24.3979H20.8765V20.8765Z" fill="#007E27"/>
      <path d="M24.3979 20.8765H20.8765V24.3979H24.3979V20.8765Z" fill="#007E27"/>
      <path d="M27.9192 20.8765H24.3979V24.3979H27.9192V20.8765Z" fill="#007E27"/>
      <path d="M34.9619 20.8765H31.4405V24.3979H34.9619V20.8765Z" fill="#007E27"/>
      <path d="M42.0046 20.8765H38.4832V24.3979H42.0046V20.8765Z" fill="#007E27"/>
      <path d="M45.5259 20.8765H42.0046V24.3979H45.5259V20.8765Z" fill="#007E27"/>
      <path d="M49.0473 20.8765H45.5259V24.3979H49.0473V20.8765Z" fill="#007E27"/>
      <path d="M56.0899 20.8765H52.5686V24.3979H56.0899V20.8765Z" fill="#007E27"/>
      <path d="M70.1753 20.8765H66.654V24.3979H70.1753V20.8765Z" fill="#007E27"/>
      <path d="M73.6966 20.8765H70.1753V24.3979H73.6966V20.8765Z" fill="#007E27"/>
      <path d="M77.218 20.8765H73.6966V24.3979H77.218V20.8765Z" fill="#007E27"/>
      <path d="M80.7393 20.8765H77.218V24.3979H80.7393V20.8765Z" fill="#007E27"/>
      <path d="M84.2607 20.8765H80.7393V24.3979H84.2607V20.8765Z" fill="#007E27"/>
      <path d="M87.782 20.8765H84.2607V24.3979H87.782V20.8765Z" fill="#007E27"/>
      <path d="M98.346 20.8765H94.8247V24.3979H98.346V20.8765Z" fill="#007E27"/>
      <path d="M101.867 20.8765H98.346V24.3979H101.867V20.8765Z" fill="#007E27"/>
      <path d="M108.91 20.8765H105.389V24.3979H108.91V20.8765Z" fill="#007E27"/>
      <path d="M112.431 20.8765H108.91V24.3979H112.431V20.8765Z" fill="#007E27"/>
      <path d="M115.953 20.8765H112.431V24.3979H115.953V20.8765Z" fill="#007E27"/>
      <path d="M133.559 20.8765H130.038V24.3979H133.559V20.8765Z" fill="#007E27"/>
      <path d="M140.602 20.8765H137.081V24.3979H140.602V20.8765Z" fill="#007E27"/>
      <path d="M144.123 20.8765H140.602V24.3979H144.123V20.8765Z" fill="#007E27"/>
      <path d="M147.645 20.8765H144.123V24.3979H147.645V20.8765Z" fill="#007E27"/>
      <path d="M154.688 20.8765H151.166V24.3979H154.688V20.8765Z" fill="#007E27"/>
      <path d="M13.8338 24.3979H10.3125V27.9192H13.8338V24.3979Z" fill="#007E27"/>
      <path d="M20.8765 24.3979H17.3552V27.9192H20.8765V24.3979Z" fill="#007E27"/>
      <path d="M24.3979 24.3979H20.8765V27.9192H24.3979V24.3979Z" fill="#007E27"/>
      <path d="M27.9192 24.3979H24.3979V27.9192H27.9192V24.3979Z" fill="#007E27"/>
      <path d="M34.9619 24.3979H31.4405V27.9192H34.9619V24.3979Z" fill="#007E27"/>
      <path d="M42.0046 24.3979H38.4832V27.9192H42.0046V24.3979Z" fill="#007E27"/>
      <path d="M49.0473 24.3979H45.5259V27.9192H49.0473V24.3979Z" fill="#007E27"/>
      <path d="M56.0899 24.3979H52.5686V27.9192H56.0899V24.3979Z" fill="#007E27"/>
      <path d="M59.6113 24.3979L56.0899 24.3979V27.9192H59.6113V24.3979Z" fill="#007E27"/>
      <path d="M63.1326 24.3979H59.6113V27.9192H63.1326V24.3979Z" fill="#007E27"/>
      <path d="M87.782 24.3979H84.2607V27.9192H87.782V24.3979Z" fill="#007E27"/>
      <path d="M91.3034 24.3979L87.782 24.3979V27.9192H91.3034V24.3979Z" fill="#007E27"/>
      <path d="M94.8247 24.3979L91.3034 24.3979V27.9192H94.8247V24.3979Z" fill="#007E27"/>
      <path d="M98.346 24.3979H94.8247V27.9192H98.346V24.3979Z" fill="#007E27"/>
      <path d="M101.867 24.3979H98.346V27.9192H101.867V24.3979Z" fill="#007E27"/>
      <path d="M105.389 24.3979H101.867V27.9192H105.389V24.3979Z" fill="#007E27"/>
      <path d="M115.953 24.3979H112.431V27.9192H115.953V24.3979Z" fill="#007E27"/>
      <path d="M119.474 24.3979L115.953 24.3979V27.9192H119.474V24.3979Z" fill="#007E27"/>
      <path d="M126.517 24.3979H122.995V27.9192H126.517V24.3979Z" fill="#007E27"/>
      <path d="M133.559 24.3979H130.038V27.9192H133.559V24.3979Z" fill="#007E27"/>
      <path d="M140.602 24.3979H137.081V27.9192H140.602V24.3979Z" fill="#007E27"/>
      <path d="M144.123 24.3979H140.602V27.9192H144.123V24.3979Z" fill="#007E27"/>
      <path d="M147.645 24.3979H144.123V27.9192H147.645V24.3979Z" fill="#007E27"/>
      <path d="M154.688 24.3979H151.166V27.9192H154.688V24.3979Z" fill="#007E27"/>
      <path d="M13.8338 27.9192H10.3125V31.4405H13.8338V27.9192Z" fill="#007E27"/>
      <path d="M34.9619 27.9192H31.4405V31.4405H34.9619V27.9192Z" fill="#007E27"/>
      <path d="M42.0046 27.9192H38.4832V31.4405H42.0046V27.9192Z" fill="#007E27"/>
      <path d="M45.5259 27.9192H42.0046V31.4405H45.5259V27.9192Z" fill="#007E27"/>
      <path d="M59.6113 27.9192H56.0899V31.4405H59.6113V27.9192Z" fill="#007E27"/>
      <path d="M63.1326 27.9192H59.6113V31.4405H63.1326V27.9192Z" fill="#007E27"/>
      <path d="M70.1753 27.9192H66.654V31.4405H70.1753V27.9192Z" fill="#007E27"/>
      <path d="M73.6966 27.9192H70.1753V31.4405H73.6966V27.9192Z" fill="#007E27"/>
      <path d="M80.7393 27.9192H77.218V31.4405H80.7393V27.9192Z" fill="#007E27"/>
      <path d="M84.2607 27.9192H80.7393V31.4405H84.2607V27.9192Z" fill="#007E27"/>
      <path d="M87.782 27.9192H84.2607V31.4405H87.782V27.9192Z" fill="#007E27"/>
      <path d="M98.346 27.9192H94.8247V31.4405H98.346V27.9192Z" fill="#007E27"/>
      <path d="M108.91 27.9192H105.389V31.4405H108.91V27.9192Z" fill="#007E27"/>
      <path d="M119.474 27.9192H115.953V31.4405H119.474V27.9192Z" fill="#007E27"/>
      <path d="M122.995 27.9192H119.474V31.4405H122.995V27.9192Z" fill="#007E27"/>
      <path d="M126.517 27.9192H122.995V31.4405H126.517V27.9192Z" fill="#007E27"/>
      <path d="M133.559 27.9192H130.038V31.4405H133.559V27.9192Z" fill="#007E27"/>
      <path d="M154.688 27.9192H151.166V31.4405H154.688V27.9192Z" fill="#007E27"/>
      <path d="M13.8338 31.4405H10.3125V34.9619H13.8338V31.4405Z" fill="#007E27"/>
      <path d="M17.3552 31.4405H13.8338V34.9619H17.3552V31.4405Z" fill="#007E27"/>
      <path d="M20.8765 31.4405H17.3552V34.9619H20.8765V31.4405Z" fill="#007E27"/>
      <path d="M24.3979 31.4405H20.8765V34.9619H24.3979V31.4405Z" fill="#007E27"/>
      <path d="M27.9192 31.4405H24.3979V34.9619H27.9192V31.4405Z" fill="#007E27"/>
      <path d="M31.4405 31.4405H27.9192V34.9619H31.4405V31.4405Z" fill="#007E27"/>
      <path d="M34.9619 31.4405H31.4405V34.9619H34.9619V31.4405Z" fill="#007E27"/>
      <path d="M42.0046 31.4405H38.4832V34.9619H42.0046V31.4405Z" fill="#007E27"/>
      <path d="M49.0473 31.4405H45.5259V34.9619H49.0473V31.4405Z" fill="#007E27"/>
      <path d="M56.0899 31.4405H52.5686V34.9619H56.0899V31.4405Z" fill="#007E27"/>
      <path d="M63.1326 31.4405H59.6113V34.9619H63.1326V31.4405Z" fill="#007E27"/>
      <path d="M70.1753 31.4405H66.654V34.9619H70.1753V31.4405Z" fill="#007E27"/>
      <path d="M77.218 31.4405H73.6966V34.9619H77.218V31.4405Z" fill="#007E27"/>
      <path d="M84.2607 31.4405H80.7393V34.9619H84.2607V31.4405Z" fill="#007E27"/>
      <path d="M91.3034 31.4405H87.782V34.9619H91.3034V31.4405Z" fill="#007E27"/>
      <path d="M98.346 31.4405H94.8247V34.9619H98.346V31.4405Z" fill="#007E27"/>
      <path d="M105.389 31.4405H101.867V34.9619H105.389V31.4405Z" fill="#007E27"/>
      <path d="M112.431 31.4405H108.91V34.9619H112.431V31.4405Z" fill="#007E27"/>
      <path d="M119.474 31.4405H115.953V34.9619H119.474V31.4405Z" fill="#007E27"/>
      <path d="M126.517 31.4405H122.995V34.9619H126.517V31.4405Z" fill="#007E27"/>
      <path d="M133.559 31.4405H130.038V34.9619H133.559V31.4405Z" fill="#007E27"/>
      <path d="M137.081 31.4405H133.559V34.9619H137.081V31.4405Z" fill="#007E27"/>
      <path d="M140.602 31.4405H137.081V34.9619H140.602V31.4405Z" fill="#007E27"/>
      <path d="M144.123 31.4405H140.602V34.9619H144.123V31.4405Z" fill="#007E27"/>
      <path d="M147.645 31.4405H144.123V34.9619H147.645V31.4405Z" fill="#007E27"/>
      <path d="M151.166 31.4405H147.645V34.9619H151.166V31.4405Z" fill="#007E27"/>
      <path d="M154.688 31.4405H151.166V34.9619H154.688V31.4405Z" fill="#007E27"/>
      <path d="M42.0046 34.9619H38.4832V38.4832H42.0046V34.9619Z" fill="#007E27"/>
      <path d="M45.5259 34.9619H42.0046V38.4832H45.5259V34.9619Z" fill="#007E27"/>
      <path d="M63.1326 34.9619H59.6113V38.4832H63.1326V34.9619Z" fill="#007E27"/>
      <path d="M66.654 34.9619H63.1326V38.4832H66.654V34.9619Z" fill="#007E27"/>
      <path d="M73.6966 34.9619H70.1753V38.4832H73.6966V34.9619Z" fill="#007E27"/>
      <path d="M84.2607 34.9619H80.7393V38.4832H84.2607V34.9619Z" fill="#007E27"/>
      <path d="M101.867 34.9619H98.346V38.4832H101.867V34.9619Z" fill="#007E27"/>
      <path d="M105.389 34.9619H101.867V38.4832H105.389V34.9619Z" fill="#007E27"/>
      <path d="M108.91 34.9619H105.389V38.4832H108.91V34.9619Z" fill="#007E27"/>
      <path d="M112.431 34.9619H108.91V38.4832H112.431V34.9619Z" fill="#007E27"/>
      <path d="M119.474 34.9619H115.953V38.4832H119.474V34.9619Z" fill="#007E27"/>
      <path d="M122.995 34.9619H119.474V38.4832H122.995V34.9619Z" fill="#007E27"/>
      <path d="M13.8338 38.4832H10.3125V42.0046H13.8338V38.4832Z" fill="#007E27"/>
      <path d="M17.3552 38.4832H13.8338V42.0046H17.3552V38.4832Z" fill="#007E27"/>
      <path d="M20.8765 38.4832H17.3552V42.0046H20.8765V38.4832Z" fill="#007E27"/>
      <path d="M27.9192 38.4832H24.3979V42.0046H27.9192V38.4832Z" fill="#007E27"/>
      <path d="M34.9619 38.4832H31.4405V42.0046H34.9619V38.4832Z" fill="#007E27"/>
      <path d="M42.0046 38.4832H38.4832V42.0046H42.0046V38.4832Z" fill="#007E27"/>
      <path d="M49.0473 38.4832H45.5259V42.0046H49.0473V38.4832Z" fill="#007E27"/>
      <path d="M52.5686 38.4832H49.0473V42.0046H52.5686V38.4832Z" fill="#007E27"/>
      <path d="M59.6113 38.4832H56.0899V42.0046H59.6113V38.4832Z" fill="#007E27"/>
      <path d="M66.654 38.4832H63.1326V42.0046H66.654V38.4832Z" fill="#007E27"/>
      <path d="M70.1753 38.4832H66.654V42.0046H70.1753V38.4832Z" fill="#007E27"/>
      <path d="M77.218 38.4832H73.6966V42.0046H77.218V38.4832Z" fill="#007E27"/>
      <path d="M84.2607 38.4832H80.7393V42.0046H84.2607V38.4832Z" fill="#007E27"/>
      <path d="M91.3034 38.4832H87.782V42.0046H91.3034V38.4832Z" fill="#007E27"/>
      <path d="M98.346 38.4832H94.8247V42.0046H98.346V38.4832Z" fill="#007E27"/>
      <path d="M105.389 38.4832H101.867V42.0046H105.389V38.4832Z" fill="#007E27"/>
      <path d="M108.91 38.4832H105.389V42.0046H108.91V38.4832Z" fill="#007E27"/>
      <path d="M112.431 38.4832H108.91V42.0046H112.431V38.4832Z" fill="#007E27"/>
      <path d="M130.038 38.4832H126.517V42.0046H130.038V38.4832Z" fill="#007E27"/>
      <path d="M133.559 38.4832H130.038V42.0046H133.559V38.4832Z" fill="#007E27"/>
      <path d="M137.081 38.4832H133.559V42.0046H137.081V38.4832Z" fill="#007E27"/>
      <path d="M140.602 38.4832H137.081V42.0046H140.602V38.4832Z" fill="#007E27"/>
      <path d="M144.123 38.4832H140.602V42.0046H144.123V38.4832Z" fill="#007E27"/>
      <path d="M154.688 38.4832H151.166V42.0046H154.688V38.4832Z" fill="#007E27"/>
      <path d="M17.3552 42.0046H13.8338V45.5259H17.3552V42.0046Z" fill="#007E27"/>
      <path d="M20.8765 42.0046H17.3552V45.5259H20.8765V42.0046Z" fill="#007E27"/>
      <path d="M31.4405 42.0046H27.9192V45.5259H31.4405V42.0046Z" fill="#007E27"/>
      <path d="M49.0473 42.0046H45.5259V45.5259H49.0473V42.0046Z" fill="#007E27"/>
      <path d="M80.7393 42.0046H77.218V45.5259H80.7393V42.0046Z" fill="#007E27"/>
      <path d="M84.2607 42.0046H80.7393V45.5259H84.2607V42.0046Z" fill="#007E27"/>
      <path d="M87.782 42.0046H84.2607V45.5259H87.782V42.0046Z" fill="#007E27"/>
      <path d="M91.3034 42.0046H87.782V45.5259H91.3034V42.0046Z" fill="#007E27"/>
      <path d="M94.8247 42.0046H91.3034V45.5259H94.8247V42.0046Z" fill="#007E27"/>
      <path d="M98.346 42.0046H94.8247V45.5259H98.346V42.0046Z" fill="#007E27"/>
      <path d="M101.867 42.0046H98.346V45.5259H101.867V42.0046Z" fill="#007E27"/>
      <path d="M112.431 42.0046H108.91V45.5259H112.431V42.0046Z" fill="#007E27"/>
      <path d="M115.953 42.0046H112.431V45.5259H115.953V42.0046Z" fill="#007E27"/>
      <path d="M126.517 42.0046H122.995V45.5259H126.517V42.0046Z" fill="#007E27"/>
      <path d="M130.038 42.0046H126.517V45.5259H130.038V42.0046Z" fill="#007E27"/>
      <path d="M140.602 42.0046H137.081V45.5259H140.602V42.0046Z" fill="#007E27"/>
      <path d="M144.123 42.0046H140.602V45.5259H144.123V42.0046Z" fill="#007E27"/>
      <path d="M151.166 42.0046H147.645V45.5259H151.166V42.0046Z" fill="#007E27"/>
      <path d="M154.688 42.0046H151.166V45.5259H154.688V42.0046Z" fill="#007E27"/>
      <path d="M17.3552 45.5259H13.8338V49.0473H17.3552V45.5259Z" fill="#007E27"/>
      <path d="M20.8765 45.5259H17.3552V49.0473H20.8765V45.5259Z" fill="#007E27"/>
      <path d="M24.3979 45.5259H20.8765V49.0473H24.3979V45.5259Z" fill="#007E27"/>
      <path d="M31.4405 45.5259H27.9192V49.0473H31.4405V45.5259Z" fill="#007E27"/>
      <path d="M34.9619 45.5259H31.4405V49.0473H34.9619V45.5259Z" fill="#007E27"/>
      <path d="M38.4832 45.5259H34.9619V49.0473H38.4832V45.5259Z" fill="#007E27"/>
      <path d="M42.0046 45.5259H38.4832V49.0473H42.0046V45.5259Z" fill="#007E27"/>
      <path d="M49.0473 45.5259H45.5259V49.0473H49.0473V45.5259Z" fill="#007E27"/>
      <path d="M56.0899 45.5259H52.5686V49.0473H56.0899V45.5259Z" fill="#007E27"/>
      <path d="M59.6113 45.5259H56.0899V49.0473H59.6113V45.5259Z" fill="#007E27"/>
      <path d="M66.654 45.5259H63.1326V49.0473H66.654V45.5259Z" fill="#007E27"/>
      <path d="M70.1753 45.5259H66.654V49.0473H70.1753V45.5259Z" fill="#007E27"/>
      <path d="M73.6966 45.5259H70.1753V49.0473H73.6966V45.5259Z" fill="#007E27"/>
      <path d="M77.218 45.5259H73.6966V49.0473H77.218V45.5259Z" fill="#007E27"/>
      <path d="M80.7393 45.5259H77.218V49.0473H80.7393V45.5259Z" fill="#007E27"/>
      <path d="M101.867 45.5259H98.346V49.0473H101.867V45.5259Z" fill="#007E27"/>
      <path d="M115.953 45.5259H112.431V49.0473H115.953V45.5259Z" fill="#007E27"/>
      <path d="M130.038 45.5259H126.517V49.0473H130.038V45.5259Z" fill="#007E27"/>
      <path d="M137.081 45.5259H133.559V49.0473H137.081V45.5259Z" fill="#007E27"/>
      <path d="M144.123 45.5259H140.602V49.0473H144.123V45.5259Z" fill="#007E27"/>
      <path d="M151.166 45.5259H147.645V49.0473H151.166V45.5259Z" fill="#007E27"/>
      <path d="M13.8338 49.0473H10.3125V52.5686H13.8338V49.0473Z" fill="#007E27"/>
      <path d="M20.8765 49.0473H17.3552V52.5686H20.8765V49.0473Z" fill="#007E27"/>
      <path d="M27.9192 49.0473H24.3979L24.3979 52.5686H27.9192V49.0473Z" fill="#007E27"/>
      <path d="M31.4405 49.0473H27.9192V52.5686H31.4405V49.0473Z" fill="#007E27"/>
      <path d="M38.4832 49.0473H34.9619V52.5686H38.4832V49.0473Z" fill="#007E27"/>
      <path d="M42.0046 49.0473H38.4832V52.5686H42.0046V49.0473Z" fill="#007E27"/>
      <path d="M45.5259 49.0473H42.0046V52.5686H45.5259V49.0473Z" fill="#007E27"/>
      <path d="M49.0473 49.0473H45.5259V52.5686H49.0473V49.0473Z" fill="#007E27"/>
      <path d="M52.5686 49.0473H49.0473V52.5686H52.5686V49.0473Z" fill="#007E27"/>
      <path d="M56.0899 49.0473H52.5686V52.5686H56.0899V49.0473Z" fill="#007E27"/>
      <path d="M63.1326 49.0473H59.6113V52.5686H63.1326V49.0473Z" fill="#007E27"/>
      <path d="M66.654 49.0473H63.1326V52.5686H66.654V49.0473Z" fill="#007E27"/>
      <path d="M70.1753 49.0473H66.654V52.5686H70.1753V49.0473Z" fill="#007E27"/>
      <path d="M73.6966 49.0473H70.1753V52.5686H73.6966V49.0473Z" fill="#007E27"/>
      <path d="M80.7393 49.0473H77.218V52.5686H80.7393V49.0473Z" fill="#007E27"/>
      <path d="M87.782 49.0473H84.2607V52.5686H87.782V49.0473Z" fill="#007E27"/>
      <path d="M91.3034 49.0473H87.782V52.5686H91.3034V49.0473Z" fill="#007E27"/>
      <path d="M94.8247 49.0473H91.3034V52.5686H94.8247V49.0473Z" fill="#007E27"/>
      <path d="M119.474 49.0473H115.953V52.5686H119.474V49.0473Z" fill="#007E27"/>
      <path d="M126.517 49.0473H122.995V52.5686H126.517V49.0473Z" fill="#007E27"/>
      <path d="M137.081 49.0473H133.559V52.5686H137.081V49.0473Z" fill="#007E27"/>
      <path d="M140.602 49.0473H137.081V52.5686H140.602V49.0473Z" fill="#007E27"/>
      <path d="M144.123 49.0473H140.602V52.5686H144.123V49.0473Z" fill="#007E27"/>
      <path d="M147.645 49.0473H144.123V52.5686H147.645V49.0473Z" fill="#007E27"/>
      <path d="M13.8338 52.5686H10.3125V56.0899H13.8338V52.5686Z" fill="#007E27"/>
      <path d="M20.8765 52.5686H17.3552V56.0899H20.8765V52.5686Z" fill="#007E27"/>
      <path d="M27.9192 52.5686H24.3979V56.0899H27.9192V52.5686Z" fill="#007E27"/>
      <path d="M34.9619 52.5686H31.4405V56.0899H34.9619V52.5686Z" fill="#007E27"/>
      <path d="M38.4832 52.5686H34.9619V56.0899H38.4832V52.5686Z" fill="#007E27"/>
      <path d="M45.5259 52.5686H42.0046V56.0899H45.5259V52.5686Z" fill="#007E27"/>
      <path d="M49.0473 52.5686H45.5259V56.0899H49.0473V52.5686Z" fill="#007E27"/>
      <path d="M52.5686 52.5686H49.0473V56.0899H52.5686V52.5686Z" fill="#007E27"/>
      <path d="M59.6113 52.5686H56.0899V56.0899H59.6113V52.5686Z" fill="#007E27"/>
      <path d="M63.1326 52.5686H59.6113V56.0899H63.1326V52.5686Z" fill="#007E27"/>
      <path d="M77.218 52.5686H73.6966V56.0899H77.218V52.5686Z" fill="#007E27"/>
      <path d="M80.7393 52.5686H77.218V56.0899H80.7393V52.5686Z" fill="#007E27"/>
      <path d="M91.3034 52.5686H87.782V56.0899H91.3034V52.5686Z" fill="#007E27"/>
      <path d="M105.389 52.5686H101.867V56.0899H105.389V52.5686Z" fill="#007E27"/>
      <path d="M115.953 52.5686H112.431V56.0899H115.953V52.5686Z" fill="#007E27"/>
      <path d="M137.081 52.5686H133.559V56.0899H137.081V52.5686Z" fill="#007E27"/>
      <path d="M140.602 52.5686H137.081V56.0899H140.602V52.5686Z" fill="#007E27"/>
      <path d="M144.123 52.5686H140.602V56.0899H144.123V52.5686Z" fill="#007E27"/>
      <path d="M154.688 52.5686H151.166V56.0899H154.688V52.5686Z" fill="#007E27"/>
      <path d="M17.3552 56.0899H13.8338V59.6113H17.3552V56.0899Z" fill="#007E27"/>
      <path d="M24.3979 56.0899H20.8765V59.6113H24.3979L24.3979 56.0899Z" fill="#007E27"/>
      <path d="M31.4405 56.0899H27.9192V59.6113H31.4405V56.0899Z" fill="#007E27"/>
      <path d="M38.4832 56.0899H34.9619V59.6113H38.4832V56.0899Z" fill="#007E27"/>
      <path d="M49.0473 56.0899H45.5259V59.6113H49.0473V56.0899Z" fill="#007E27"/>
      <path d="M52.5686 56.0899H49.0473V59.6113H52.5686V56.0899Z" fill="#007E27"/>
      <path d="M59.6113 56.0899H56.0899V59.6113H59.6113V56.0899Z" fill="#007E27"/>
      <path d="M77.218 56.0899H73.6966V59.6113H77.218V56.0899Z" fill="#007E27"/>
      <path d="M84.2607 56.0899H80.7393V59.6113H84.2607V56.0899Z" fill="#007E27"/>
      <path d="M87.782 56.0899H84.2607V59.6113H87.782V56.0899Z" fill="#007E27"/>
      <path d="M91.3034 56.0899H87.782V59.6113H91.3034V56.0899Z" fill="#007E27"/>
      <path d="M94.8247 56.0899H91.3034V59.6113H94.8247V56.0899Z" fill="#007E27"/>
      <path d="M98.346 56.0899H94.8247V59.6113H98.346V56.0899Z" fill="#007E27"/>
      <path d="M112.431 56.0899H108.91V59.6113H112.431V56.0899Z" fill="#007E27"/>
      <path d="M122.995 56.0899H119.474V59.6113H122.995V56.0899Z" fill="#007E27"/>
      <path d="M130.038 56.0899H126.517V59.6113H130.038V56.0899Z" fill="#007E27"/>
      <path d="M144.123 56.0899H140.602V59.6113H144.123V56.0899Z" fill="#007E27"/>
      <path d="M13.8338 59.6113H10.3125V63.1326H13.8338V59.6113Z" fill="#007E27"/>
      <path d="M17.3552 59.6113H13.8338V63.1326H17.3552V59.6113Z" fill="#007E27"/>
      <path d="M27.9192 59.6113H24.3979L24.3979 63.1326H27.9192V59.6113Z" fill="#007E27"/>
      <path d="M31.4405 59.6113H27.9192V63.1326H31.4405V59.6113Z" fill="#007E27"/>
      <path d="M34.9619 59.6113H31.4405V63.1326H34.9619V59.6113Z" fill="#007E27"/>
      <path d="M38.4832 59.6113H34.9619V63.1326H38.4832V59.6113Z" fill="#007E27"/>
      <path d="M49.0473 59.6113H45.5259V63.1326H49.0473V59.6113Z" fill="#007E27"/>
      <path d="M52.5686 59.6113H49.0473V63.1326H52.5686V59.6113Z" fill="#007E27"/>
      <path d="M56.0899 59.6113H52.5686V63.1326H56.0899V59.6113Z" fill="#007E27"/>
      <path d="M66.654 59.6113H63.1326V63.1326H66.654V59.6113Z" fill="#007E27"/>
      <path d="M73.6966 59.6113H70.1753V63.1326H73.6966V59.6113Z" fill="#007E27"/>
      <path d="M77.218 59.6113H73.6966V63.1326H77.218V59.6113Z" fill="#007E27"/>
      <path d="M87.782 59.6113H84.2607V63.1326H87.782V59.6113Z" fill="#007E27"/>
      <path d="M98.346 59.6113H94.8247V63.1326H98.346V59.6113Z" fill="#007E27"/>
      <path d="M108.91 59.6113H105.389V63.1326H108.91V59.6113Z" fill="#007E27"/>
      <path d="M115.953 59.6113H112.431V63.1326H115.953V59.6113Z" fill="#007E27"/>
      <path d="M126.517 59.6113H122.995V63.1326H126.517V59.6113Z" fill="#007E27"/>
      <path d="M133.559 59.6113H130.038V63.1326H133.559V59.6113Z" fill="#007E27"/>
      <path d="M137.081 59.6113H133.559V63.1326H137.081V59.6113Z" fill="#007E27"/>
      <path d="M140.602 59.6113H137.081V63.1326H140.602V59.6113Z" fill="#007E27"/>
      <path d="M144.123 59.6113H140.602V63.1326H144.123V59.6113Z" fill="#007E27"/>
      <path d="M151.166 59.6113H147.645V63.1326H151.166V59.6113Z" fill="#007E27"/>
      <path d="M154.688 59.6113H151.166V63.1326H154.688V59.6113Z" fill="#007E27"/>
      <path d="M20.8765 63.1326H17.3552V66.654H20.8765V63.1326Z" fill="#007E27"/>
      <path d="M24.3979 63.1326H20.8765V66.654H24.3979L24.3979 63.1326Z" fill="#007E27"/>
      <path d="M42.0046 63.1326H38.4832V66.654H42.0046V63.1326Z" fill="#007E27"/>
      <path d="M45.5259 63.1326H42.0046V66.654H45.5259V63.1326Z" fill="#007E27"/>
      <path d="M49.0473 63.1326H45.5259V66.654H49.0473V63.1326Z" fill="#007E27"/>
      <path d="M66.654 63.1326H63.1326V66.654H66.654V63.1326Z" fill="#007E27"/>
      <path d="M94.8247 63.1326H91.3034V66.654H94.8247V63.1326Z" fill="#007E27"/>
      <path d="M98.346 63.1326H94.8247V66.654H98.346V63.1326Z" fill="#007E27"/>
      <path d="M105.389 63.1326H101.867V66.654H105.389V63.1326Z" fill="#007E27"/>
      <path d="M108.91 63.1326H105.389V66.654H108.91V63.1326Z" fill="#007E27"/>
      <path d="M112.431 63.1326H108.91V66.654H112.431V63.1326Z" fill="#007E27"/>
      <path d="M115.953 63.1326H112.431V66.654H115.953V63.1326Z" fill="#007E27"/>
      <path d="M130.038 63.1326H126.517V66.654H130.038V63.1326Z" fill="#007E27"/>
      <path d="M137.081 63.1326H133.559V66.654H137.081V63.1326Z" fill="#007E27"/>
      <path d="M17.3552 66.654H13.8338V70.1753H17.3552V66.654Z" fill="#007E27"/>
      <path d="M24.3979 66.654H20.8765V70.1753H24.3979V66.654Z" fill="#007E27"/>
      <path d="M27.9192 66.654H24.3979V70.1753H27.9192V66.654Z" fill="#007E27"/>
      <path d="M31.4405 66.654H27.9192V70.1753H31.4405V66.654Z" fill="#007E27"/>
      <path d="M34.9619 66.654H31.4405V70.1753H34.9619V66.654Z" fill="#007E27"/>
      <path d="M49.0473 66.654H45.5259V70.1753H49.0473V66.654Z" fill="#007E27"/>
      <path d="M56.0899 66.654H52.5686V70.1753H56.0899V66.654Z" fill="#007E27"/>
      <path d="M63.1326 66.654H59.6113V70.1753H63.1326V66.654Z" fill="#007E27"/>
      <path d="M98.346 66.654H94.8247V70.1753H98.346V66.654Z" fill="#007E27"/>
      <path d="M101.867 66.654H98.346V70.1753H101.867V66.654Z" fill="#007E27"/>
      <path d="M126.517 66.654H122.995V70.1753H126.517V66.654Z" fill="#007E27"/>
      <path d="M140.602 66.654H137.081V70.1753H140.602V66.654Z" fill="#007E27"/>
      <path d="M154.688 66.654H151.166V70.1753H154.688V66.654Z" fill="#007E27"/>
      <path d="M17.3552 70.1753H13.8338V73.6966H17.3552V70.1753Z" fill="#007E27"/>
      <path d="M20.8765 70.1753H17.3552V73.6966H20.8765V70.1753Z" fill="#007E27"/>
      <path d="M31.4405 70.1753H27.9192V73.6966H31.4405V70.1753Z" fill="#007E27"/>
      <path d="M42.0046 70.1753H38.4832V73.6966H42.0046V70.1753Z" fill="#007E27"/>
      <path d="M52.5686 70.1753H49.0473V73.6966H52.5686V70.1753Z" fill="#007E27"/>
      <path d="M59.6113 70.1753H56.0899V73.6966H59.6113V70.1753Z" fill="#007E27"/>
      <path d="M73.6966 70.1753H70.1753V73.6966H73.6966V70.1753Z" fill="#007E27"/>
      <path d="M77.218 70.1753H73.6966V73.6966H77.218V70.1753Z" fill="#007E27"/>
      <path d="M87.782 70.1753H84.2607V73.6966H87.782V70.1753Z" fill="#007E27"/>
      <path d="M94.8247 70.1753H91.3034V73.6966H94.8247V70.1753Z" fill="#007E27"/>
      <path d="M101.867 70.1753H98.346V73.6966H101.867V70.1753Z" fill="#007E27"/>
      <path d="M105.389 70.1753H101.867V73.6966H105.389V70.1753Z" fill="#007E27"/>
      <path d="M112.431 70.1753H108.91V73.6966H112.431V70.1753Z" fill="#007E27"/>
      <path d="M115.953 70.1753H112.431V73.6966H115.953V70.1753Z" fill="#007E27"/>
      <path d="M126.517 70.1753H122.995V73.6966H126.517V70.1753Z" fill="#007E27"/>
      <path d="M130.038 70.1753H126.517V73.6966H130.038V70.1753Z" fill="#007E27"/>
      <path d="M140.602 70.1753H137.081V73.6966H140.602V70.1753Z" fill="#007E27"/>
      <path d="M147.645 70.1753H144.123V73.6966H147.645V70.1753Z" fill="#007E27"/>
      <path d="M151.166 70.1753H147.645V73.6966H151.166V70.1753Z" fill="#007E27"/>
      <path d="M13.8338 73.6966H10.3125V77.218H13.8338V73.6966Z" fill="#007E27"/>
      <path d="M20.8765 73.6966H17.3552V77.218H20.8765V73.6966Z" fill="#007E27"/>
      <path d="M27.9192 73.6966H24.3979V77.218H27.9192V73.6966Z" fill="#007E27"/>
      <path d="M34.9619 73.6966H31.4405V77.218H34.9619V73.6966Z" fill="#007E27"/>
      <path d="M42.0046 73.6966H38.4832V77.218H42.0046V73.6966Z" fill="#007E27"/>
      <path d="M45.5259 73.6966H42.0046V77.218H45.5259V73.6966Z" fill="#007E27"/>
      <path d="M63.1326 73.6966H59.6113V77.218H63.1326V73.6966Z" fill="#007E27"/>
      <path d="M77.218 73.6966H73.6966V77.218H77.218V73.6966Z" fill="#007E27"/>
      <path d="M84.2607 73.6966H80.7393V77.218H84.2607V73.6966Z" fill="#007E27"/>
      <path d="M101.867 73.6966H98.346V77.218H101.867V73.6966Z" fill="#007E27"/>
      <path d="M105.389 73.6966H101.867V77.218H105.389V73.6966Z" fill="#007E27"/>
      <path d="M108.91 73.6966H105.389V77.218H108.91V73.6966Z" fill="#007E27"/>
      <path d="M115.953 73.6966H112.431V77.218H115.953V73.6966Z" fill="#007E27"/>
      <path d="M122.995 73.6966H119.474V77.218H122.995V73.6966Z" fill="#007E27"/>
      <path d="M130.038 73.6966H126.517V77.218H130.038V73.6966Z" fill="#007E27"/>
      <path d="M137.081 73.6966H133.559V77.218H137.081V73.6966Z" fill="#007E27"/>
      <path d="M144.123 73.6966H140.602V77.218H144.123V73.6966Z" fill="#007E27"/>
      <path d="M151.166 73.6966H147.645V77.218H151.166V73.6966Z" fill="#007E27"/>
      <path d="M154.688 73.6966H151.166V77.218H154.688V73.6966Z" fill="#007E27"/>
      <path d="M17.3552 77.218H13.8338V80.7393H17.3552V77.218Z" fill="#007E27"/>
      <path d="M27.9192 77.218H24.3979V80.7393H27.9192V77.218Z" fill="#007E27"/>
      <path d="M45.5259 77.218H42.0046V80.7393H45.5259V77.218Z" fill="#007E27"/>
      <path d="M52.5686 77.218H49.0473V80.7393H52.5686V77.218Z" fill="#007E27"/>
      <path d="M59.6113 77.218H56.0899V80.7393H59.6113V77.218Z" fill="#007E27"/>
      <path d="M63.1326 77.218H59.6113V80.7393H63.1326V77.218Z" fill="#007E27"/>
      <path d="M73.6966 77.218H70.1753V80.7393H73.6966V77.218Z" fill="#007E27"/>
      <path d="M77.218 77.218H73.6966V80.7393H77.218V77.218Z" fill="#007E27"/>
      <path d="M80.7393 77.218H77.218V80.7393H80.7393V77.218Z" fill="#007E27"/>
      <path d="M84.2607 77.218H80.7393V80.7393H84.2607V77.218Z" fill="#007E27"/>
      <path d="M87.782 77.218H84.2607V80.7393H87.782V77.218Z" fill="#007E27"/>
      <path d="M105.389 77.218H101.867V80.7393H105.389V77.218Z" fill="#007E27"/>
      <path d="M108.91 77.218H105.389V80.7393H108.91V77.218Z" fill="#007E27"/>
      <path d="M130.038 77.218H126.517V80.7393H130.038V77.218Z" fill="#007E27"/>
      <path d="M147.645 77.218H144.123V80.7393H147.645V77.218Z" fill="#007E27"/>
      <path d="M151.166 77.218H147.645V80.7393H151.166V77.218Z" fill="#007E27"/>
      <path d="M17.3552 80.7393H13.8338V84.2607H17.3552V80.7393Z" fill="#007E27"/>
      <path d="M27.9192 80.7393H24.3979V84.2607H27.9192V80.7393Z" fill="#007E27"/>
      <path d="M34.9619 80.7393H31.4405V84.2607H34.9619V80.7393Z" fill="#007E27"/>
      <path d="M52.5686 80.7393H49.0473V84.2607H52.5686V80.7393Z" fill="#007E27"/>
      <path d="M59.6113 80.7393H56.0899V84.2607H59.6113V80.7393Z" fill="#007E27"/>
      <path d="M63.1326 80.7393H59.6113V84.2607H63.1326V80.7393Z" fill="#007E27"/>
      <path d="M66.654 80.7393H63.1326V84.2607H66.654V80.7393Z" fill="#007E27"/>
      <path d="M73.6966 80.7393H70.1753V84.2607H73.6966V80.7393Z" fill="#007E27"/>
      <path d="M77.218 80.7393H73.6966V84.2607H77.218V80.7393Z" fill="#007E27"/>
      <path d="M98.346 80.7393H94.8247V84.2607H98.346V80.7393Z" fill="#007E27"/>
      <path d="M105.389 80.7393H101.867V84.2607H105.389V80.7393Z" fill="#007E27"/>
      <path d="M108.91 80.7393H105.389V84.2607H108.91V80.7393Z" fill="#007E27"/>
      <path d="M112.431 80.7393H108.91V84.2607H112.431V80.7393Z" fill="#007E27"/>
      <path d="M115.953 80.7393H112.431V84.2607H115.953V80.7393Z" fill="#007E27"/>
      <path d="M119.474 80.7393H115.953V84.2607H119.474V80.7393Z" fill="#007E27"/>
      <path d="M137.081 80.7393H133.559V84.2607H137.081V80.7393Z" fill="#007E27"/>
      <path d="M140.602 80.7393H137.081V84.2607H140.602V80.7393Z" fill="#007E27"/>
      <path d="M147.645 80.7393H144.123V84.2607H147.645V80.7393Z" fill="#007E27"/>
      <path d="M151.166 80.7393H147.645V84.2607H151.166V80.7393Z" fill="#007E27"/>
      <path d="M154.688 80.7393H151.166V84.2607H154.688V80.7393Z" fill="#007E27"/>
      <path d="M13.8338 84.2607H10.3125V87.782H13.8338V84.2607Z" fill="#007E27"/>
      <path d="M20.8765 84.2607H17.3552V87.782H20.8765V84.2607Z" fill="#007E27"/>
      <path d="M45.5259 84.2607H42.0046V87.782H45.5259V84.2607Z" fill="#007E27"/>
      <path d="M49.0473 84.2607H45.5259V87.782H49.0473V84.2607Z" fill="#007E27"/>
      <path d="M56.0899 84.2607H52.5686V87.782H56.0899V84.2607Z" fill="#007E27"/>
      <path d="M73.6966 84.2607H70.1753V87.782H73.6966V84.2607Z" fill="#007E27"/>
      <path d="M80.7393 84.2607H77.218V87.782H80.7393V84.2607Z" fill="#007E27"/>
      <path d="M84.2607 84.2607H80.7393V87.782H84.2607V84.2607Z" fill="#007E27"/>
      <path d="M91.3034 84.2607H87.782V87.782H91.3034V84.2607Z" fill="#007E27"/>
      <path d="M105.389 84.2607H101.867V87.782H105.389V84.2607Z" fill="#007E27"/>
      <path d="M119.474 84.2607H115.953V87.782H119.474V84.2607Z" fill="#007E27"/>
      <path d="M133.559 84.2607H130.038V87.782H133.559V84.2607Z" fill="#007E27"/>
      <path d="M140.602 84.2607H137.081V87.782H140.602V84.2607Z" fill="#007E27"/>
      <path d="M144.123 84.2607H140.602V87.782H144.123V84.2607Z" fill="#007E27"/>
      <path d="M24.3979 87.782H20.8765V91.3034H24.3979V87.782Z" fill="#007E27"/>
      <path d="M27.9192 87.782H24.3979V91.3034H27.9192V87.782Z" fill="#007E27"/>
      <path d="M34.9619 87.782H31.4405V91.3034H34.9619V87.782Z" fill="#007E27"/>
      <path d="M45.5259 87.782H42.0046V91.3034H45.5259V87.782Z" fill="#007E27"/>
      <path d="M52.5686 87.782H49.0473V91.3034H52.5686V87.782Z" fill="#007E27"/>
      <path d="M63.1326 87.782H59.6113V91.3034H63.1326V87.782Z" fill="#007E27"/>
      <path d="M70.1753 87.782H66.654V91.3034H70.1753V87.782Z" fill="#007E27"/>
      <path d="M87.782 87.782H84.2607V91.3034H87.782V87.782Z" fill="#007E27"/>
      <path d="M91.3034 87.782H87.782V91.3034H91.3034V87.782Z" fill="#007E27"/>
      <path d="M98.346 87.782H94.8247V91.3034H98.346V87.782Z" fill="#007E27"/>
      <path d="M119.474 87.782H115.953V91.3034H119.474V87.782Z" fill="#007E27"/>
      <path d="M126.517 87.782H122.995V91.3034H126.517V87.782Z" fill="#007E27"/>
      <path d="M140.602 87.782H137.081V91.3034H140.602V87.782Z" fill="#007E27"/>
      <path d="M144.123 87.782H140.602V91.3034H144.123V87.782Z" fill="#007E27"/>
      <path d="M151.166 87.782H147.645V91.3034H151.166V87.782Z" fill="#007E27"/>
      <path d="M154.688 87.782H151.166V91.3034H154.688V87.782Z" fill="#007E27"/>
      <path d="M31.4405 91.3034H27.9192V94.8247H31.4405V91.3034Z" fill="#007E27"/>
      <path d="M38.4832 91.3034H34.9619V94.8247H38.4832V91.3034Z" fill="#007E27"/>
      <path d="M42.0046 91.3034H38.4832V94.8247H42.0046V91.3034Z" fill="#007E27"/>
      <path d="M45.5259 91.3034H42.0046V94.8247H45.5259V91.3034Z" fill="#007E27"/>
      <path d="M49.0473 91.3034H45.5259V94.8247H49.0473V91.3034Z" fill="#007E27"/>
      <path d="M56.0899 91.3034H52.5686V94.8247H56.0899V91.3034Z" fill="#007E27"/>
      <path d="M63.1326 91.3034H59.6113V94.8247H63.1326V91.3034Z" fill="#007E27"/>
      <path d="M66.654 91.3034H63.1326V94.8247H66.654V91.3034Z" fill="#007E27"/>
      <path d="M77.218 91.3034H73.6966V94.8247H77.218V91.3034Z" fill="#007E27"/>
      <path d="M80.7393 91.3034H77.218V94.8247H80.7393V91.3034Z" fill="#007E27"/>
      <path d="M84.2607 91.3034H80.7393V94.8247H84.2607V91.3034Z" fill="#007E27"/>
      <path d="M91.3034 91.3034H87.782V94.8247H91.3034V91.3034Z" fill="#007E27"/>
      <path d="M94.8247 91.3034H91.3034V94.8247H94.8247V91.3034Z" fill="#007E27"/>
      <path d="M101.867 91.3034H98.346V94.8247H101.867V91.3034Z" fill="#007E27"/>
      <path d="M108.91 91.3034H105.389V94.8247H108.91V91.3034Z" fill="#007E27"/>
      <path d="M115.953 91.3034H112.431V94.8247H115.953V91.3034Z" fill="#007E27"/>
      <path d="M119.474 91.3034H115.953V94.8247H119.474V91.3034Z" fill="#007E27"/>
      <path d="M130.038 91.3034H126.517V94.8247H130.038V91.3034Z" fill="#007E27"/>
      <path d="M133.559 91.3034H130.038V94.8247H133.559V91.3034Z" fill="#007E27"/>
      <path d="M140.602 91.3034H137.081V94.8247H140.602V91.3034Z" fill="#007E27"/>
      <path d="M154.688 91.3034H151.166V94.8247H154.688V91.3034Z" fill="#007E27"/>
      <path d="M27.9192 94.8247H24.3979V98.346H27.9192V94.8247Z" fill="#007E27"/>
      <path d="M31.4405 94.8247H27.9192V98.346H31.4405V94.8247Z" fill="#007E27"/>
      <path d="M34.9619 94.8247H31.4405V98.346H34.9619V94.8247Z" fill="#007E27"/>
      <path d="M42.0046 94.8247H38.4832V98.346H42.0046V94.8247Z" fill="#007E27"/>
      <path d="M56.0899 94.8247H52.5686V98.346H56.0899V94.8247Z" fill="#007E27"/>
      <path d="M63.1326 94.8247H59.6113V98.346H63.1326V94.8247Z" fill="#007E27"/>
      <path d="M84.2607 94.8247H80.7393V98.346H84.2607V94.8247Z" fill="#007E27"/>
      <path d="M91.3034 94.8247H87.782V98.346H91.3034V94.8247Z" fill="#007E27"/>
      <path d="M98.346 94.8247H94.8247V98.346H98.346V94.8247Z" fill="#007E27"/>
      <path d="M115.953 94.8247H112.431V98.346H115.953V94.8247Z" fill="#007E27"/>
      <path d="M122.995 94.8247H119.474V98.346H122.995V94.8247Z" fill="#007E27"/>
      <path d="M130.038 94.8247H126.517V98.346H130.038V94.8247Z" fill="#007E27"/>
      <path d="M140.602 94.8247H137.081V98.346H140.602V94.8247Z" fill="#007E27"/>
      <path d="M147.645 94.8247H144.123V98.346H147.645V94.8247Z" fill="#007E27"/>
      <path d="M151.166 94.8247H147.645V98.346H151.166V94.8247Z" fill="#007E27"/>
      <path d="M154.688 94.8247H151.166V98.346H154.688V94.8247Z" fill="#007E27"/>
      <path d="M27.9192 98.346H24.3979V101.867H27.9192V98.346Z" fill="#007E27"/>
      <path d="M31.4405 98.346H27.9192V101.867H31.4405V98.346Z" fill="#007E27"/>
      <path d="M38.4832 98.346H34.9619V101.867H38.4832V98.346Z" fill="#007E27"/>
      <path d="M49.0473 98.346H45.5259V101.867H49.0473V98.346Z" fill="#007E27"/>
      <path d="M63.1326 98.346H59.6113V101.867H63.1326V98.346Z" fill="#007E27"/>
      <path d="M70.1753 98.346H66.654V101.867H70.1753V98.346Z" fill="#007E27"/>
      <path d="M77.218 98.346H73.6966V101.867H77.218V98.346Z" fill="#007E27"/>
      <path d="M80.7393 98.346H77.218V101.867H80.7393V98.346Z" fill="#007E27"/>
      <path d="M84.2607 98.346H80.7393V101.867H84.2607V98.346Z" fill="#007E27"/>
      <path d="M91.3034 98.346H87.782V101.867H91.3034V98.346Z" fill="#007E27"/>
      <path d="M101.867 98.346H98.346V101.867H101.867V98.346Z" fill="#007E27"/>
      <path d="M112.431 98.346H108.91V101.867H112.431V98.346Z" fill="#007E27"/>
      <path d="M119.474 98.346H115.953V101.867H119.474V98.346Z" fill="#007E27"/>
      <path d="M122.995 98.346H119.474V101.867H122.995V98.346Z" fill="#007E27"/>
      <path d="M130.038 98.346H126.517V101.867H130.038V98.346Z" fill="#007E27"/>
      <path d="M133.559 98.346H130.038V101.867H133.559V98.346Z" fill="#007E27"/>
      <path d="M137.081 98.346H133.559V101.867H137.081V98.346Z" fill="#007E27"/>
      <path d="M140.602 98.346H137.081V101.867H140.602V98.346Z" fill="#007E27"/>
      <path d="M154.688 98.346H151.166V101.867H154.688V98.346Z" fill="#007E27"/>
      <path d="M13.8338 101.867H10.3125V105.389H13.8338V101.867Z" fill="#007E27"/>
      <path d="M27.9192 101.867H24.3979V105.389H27.9192V101.867Z" fill="#007E27"/>
      <path d="M31.4405 101.867H27.9192V105.389H31.4405V101.867Z" fill="#007E27"/>
      <path d="M34.9619 101.867H31.4405V105.389H34.9619V101.867Z" fill="#007E27"/>
      <path d="M38.4832 101.867H34.9619V105.389H38.4832V101.867Z" fill="#007E27"/>
      <path d="M42.0046 101.867H38.4832V105.389H42.0046V101.867Z" fill="#007E27"/>
      <path d="M45.5259 101.867H42.0046V105.389H45.5259V101.867Z" fill="#007E27"/>
      <path d="M49.0473 101.867H45.5259V105.389H49.0473V101.867Z" fill="#007E27"/>
      <path d="M77.218 101.867H73.6966V105.389H77.218V101.867Z" fill="#007E27"/>
      <path d="M94.8247 101.867H91.3034V105.389H94.8247V101.867Z" fill="#007E27"/>
      <path d="M101.867 101.867H98.346V105.389H101.867V101.867Z" fill="#007E27"/>
      <path d="M112.431 101.867H108.91V105.389H112.431V101.867Z" fill="#007E27"/>
      <path d="M115.953 101.867H112.431V105.389H115.953V101.867Z" fill="#007E27"/>
      <path d="M126.517 101.867H122.995V105.389H126.517V101.867Z" fill="#007E27"/>
      <path d="M144.123 101.867H140.602V105.389H144.123V101.867Z" fill="#007E27"/>
      <path d="M147.645 101.867H144.123V105.389H147.645V101.867Z" fill="#007E27"/>
      <path d="M38.4832 105.389H34.9619V108.91H38.4832V105.389Z" fill="#007E27"/>
      <path d="M45.5259 105.389H42.0046V108.91H45.5259V105.389Z" fill="#007E27"/>
      <path d="M49.0473 105.389H45.5259V108.91H49.0473V105.389Z" fill="#007E27"/>
      <path d="M56.0899 105.389H52.5686V108.91H56.0899V105.389Z" fill="#007E27"/>
      <path d="M63.1326 105.389H59.6113V108.91H63.1326V105.389Z" fill="#007E27"/>
      <path d="M70.1753 105.389H66.654V108.91H70.1753V105.389Z" fill="#007E27"/>
      <path d="M73.6966 105.389H70.1753V108.91H73.6966V105.389Z" fill="#007E27"/>
      <path d="M77.218 105.389H73.6966V108.91H77.218V105.389Z" fill="#007E27"/>
      <path d="M80.7393 105.389H77.218V108.91H80.7393V105.389Z" fill="#007E27"/>
      <path d="M91.3034 105.389H87.782V108.91H91.3034V105.389Z" fill="#007E27"/>
      <path d="M101.867 105.389H98.346V108.91H101.867V105.389Z" fill="#007E27"/>
      <path d="M105.389 105.389H101.867V108.91H105.389V105.389Z" fill="#007E27"/>
      <path d="M108.91 105.389H105.389V108.91H108.91V105.389Z" fill="#007E27"/>
      <path d="M112.431 105.389H108.91V108.91H112.431V105.389Z" fill="#007E27"/>
      <path d="M122.995 105.389H119.474V108.91H122.995V105.389Z" fill="#007E27"/>
      <path d="M130.038 105.389H126.517V108.91H130.038V105.389Z" fill="#007E27"/>
      <path d="M133.559 105.389H130.038V108.91H133.559V105.389Z" fill="#007E27"/>
      <path d="M137.081 105.389H133.559V108.91H137.081V105.389Z" fill="#007E27"/>
      <path d="M144.123 105.389H140.602V108.91H144.123V105.389Z" fill="#007E27"/>
      <path d="M147.645 105.389H144.123V108.91H147.645V105.389Z" fill="#007E27"/>
      <path d="M24.3979 108.91H20.8765V112.431H24.3979V108.91Z" fill="#007E27"/>
      <path d="M27.9192 108.91H24.3979V112.431H27.9192V108.91Z" fill="#007E27"/>
      <path d="M31.4405 108.91H27.9192V112.431H31.4405V108.91Z" fill="#007E27"/>
      <path d="M34.9619 108.91H31.4405V112.431H34.9619V108.91Z" fill="#007E27"/>
      <path d="M42.0046 108.91H38.4832V112.431H42.0046V108.91Z" fill="#007E27"/>
      <path d="M45.5259 108.91H42.0046V112.431H45.5259V108.91Z" fill="#007E27"/>
      <path d="M49.0473 108.91H45.5259V112.431H49.0473V108.91Z" fill="#007E27"/>
      <path d="M66.654 108.91H63.1326V112.431H66.654V108.91Z" fill="#007E27"/>
      <path d="M70.1753 108.91H66.654V112.431H70.1753V108.91Z" fill="#007E27"/>
      <path d="M80.7393 108.91H77.218V112.431H80.7393V108.91Z" fill="#007E27"/>
      <path d="M84.2607 108.91H80.7393V112.431H84.2607V108.91Z" fill="#007E27"/>
      <path d="M91.3034 108.91H87.782V112.431H91.3034V108.91Z" fill="#007E27"/>
      <path d="M98.346 108.91H94.8247V112.431H98.346V108.91Z" fill="#007E27"/>
      <path d="M101.867 108.91H98.346V112.431H101.867V108.91Z" fill="#007E27"/>
      <path d="M105.389 108.91H101.867V112.431H105.389V108.91Z" fill="#007E27"/>
      <path d="M119.474 108.91H115.953V112.431H119.474V108.91Z" fill="#007E27"/>
      <path d="M122.995 108.91H119.474V112.431H122.995V108.91Z" fill="#007E27"/>
      <path d="M126.517 108.91H122.995V112.431H126.517V108.91Z" fill="#007E27"/>
      <path d="M130.038 108.91H126.517V112.431H130.038V108.91Z" fill="#007E27"/>
      <path d="M140.602 108.91H137.081V112.431H140.602V108.91Z" fill="#007E27"/>
      <path d="M151.166 108.91H147.645V112.431H151.166V108.91Z" fill="#007E27"/>
      <path d="M154.688 108.91H151.166V112.431H154.688V108.91Z" fill="#007E27"/>
      <path d="M13.8338 112.431H10.3125V115.953H13.8338V112.431Z" fill="#007E27"/>
      <path d="M27.9192 112.431H24.3979L24.3979 115.953H27.9192V112.431Z" fill="#007E27"/>
      <path d="M31.4405 112.431H27.9192V115.953H31.4405V112.431Z" fill="#007E27"/>
      <path d="M42.0046 112.431H38.4832V115.953H42.0046V112.431Z" fill="#007E27"/>
      <path d="M49.0473 112.431H45.5259V115.953H49.0473V112.431Z" fill="#007E27"/>
      <path d="M52.5686 112.431H49.0473V115.953H52.5686V112.431Z" fill="#007E27"/>
      <path d="M56.0899 112.431H52.5686V115.953H56.0899V112.431Z" fill="#007E27"/>
      <path d="M63.1326 112.431H59.6113V115.953H63.1326V112.431Z" fill="#007E27"/>
      <path d="M70.1753 112.431H66.654V115.953H70.1753V112.431Z" fill="#007E27"/>
      <path d="M80.7393 112.431H77.218V115.953H80.7393V112.431Z" fill="#007E27"/>
      <path d="M94.8247 112.431H91.3034V115.953H94.8247V112.431Z" fill="#007E27"/>
      <path d="M105.389 112.431H101.867V115.953H105.389V112.431Z" fill="#007E27"/>
      <path d="M119.474 112.431H115.953V115.953H119.474V112.431Z" fill="#007E27"/>
      <path d="M133.559 112.431H130.038V115.953H133.559V112.431Z" fill="#007E27"/>
      <path d="M137.081 112.431H133.559V115.953H137.081V112.431Z" fill="#007E27"/>
      <path d="M140.602 112.431H137.081V115.953H140.602V112.431Z" fill="#007E27"/>
      <path d="M144.123 112.431H140.602V115.953H144.123V112.431Z" fill="#007E27"/>
      <path d="M17.3552 115.953H13.8338V119.474H17.3552V115.953Z" fill="#007E27"/>
      <path d="M24.3979 115.953H20.8765V119.474H24.3979L24.3979 115.953Z" fill="#007E27"/>
      <path d="M34.9619 115.953H31.4405V119.474H34.9619V115.953Z" fill="#007E27"/>
      <path d="M38.4832 115.953H34.9619V119.474H38.4832V115.953Z" fill="#007E27"/>
      <path d="M49.0473 115.953H45.5259V119.474H49.0473V115.953Z" fill="#007E27"/>
      <path d="M63.1326 115.953H59.6113V119.474H63.1326V115.953Z" fill="#007E27"/>
      <path d="M80.7393 115.953H77.218V119.474H80.7393V115.953Z" fill="#007E27"/>
      <path d="M87.782 115.953H84.2607V119.474H87.782V115.953Z" fill="#007E27"/>
      <path d="M91.3034 115.953H87.782V119.474H91.3034V115.953Z" fill="#007E27"/>
      <path d="M94.8247 115.953H91.3034V119.474H94.8247V115.953Z" fill="#007E27"/>
      <path d="M101.867 115.953H98.346V119.474H101.867V115.953Z" fill="#007E27"/>
      <path d="M112.431 115.953H108.91V119.474H112.431V115.953Z" fill="#007E27"/>
      <path d="M119.474 115.953H115.953V119.474H119.474V115.953Z" fill="#007E27"/>
      <path d="M122.995 115.953H119.474V119.474H122.995V115.953Z" fill="#007E27"/>
      <path d="M130.038 115.953H126.517V119.474H130.038V115.953Z" fill="#007E27"/>
      <path d="M133.559 115.953H130.038V119.474H133.559V115.953Z" fill="#007E27"/>
      <path d="M140.602 115.953H137.081V119.474H140.602V115.953Z" fill="#007E27"/>
      <path d="M147.645 115.953H144.123V119.474H147.645V115.953Z" fill="#007E27"/>
      <path d="M17.3552 119.474H13.8338V122.995H17.3552V119.474Z" fill="#007E27"/>
      <path d="M20.8765 119.474H17.3552V122.995H20.8765V119.474Z" fill="#007E27"/>
      <path d="M27.9192 119.474H24.3979L24.3979 122.995H27.9192V119.474Z" fill="#007E27"/>
      <path d="M38.4832 119.474H34.9619V122.995H38.4832V119.474Z" fill="#007E27"/>
      <path d="M45.5259 119.474H42.0046V122.995H45.5259V119.474Z" fill="#007E27"/>
      <path d="M52.5686 119.474H49.0473V122.995H52.5686V119.474Z" fill="#007E27"/>
      <path d="M59.6113 119.474H56.0899V122.995H59.6113V119.474Z" fill="#007E27"/>
      <path d="M66.654 119.474H63.1326V122.995H66.654V119.474Z" fill="#007E27"/>
      <path d="M70.1753 119.474H66.654V122.995H70.1753V119.474Z" fill="#007E27"/>
      <path d="M77.218 119.474H73.6966V122.995H77.218V119.474Z" fill="#007E27"/>
      <path d="M87.782 119.474H84.2607V122.995H87.782V119.474Z" fill="#007E27"/>
      <path d="M94.8247 119.474H91.3034V122.995H94.8247V119.474Z" fill="#007E27"/>
      <path d="M105.389 119.474H101.867V122.995H105.389V119.474Z" fill="#007E27"/>
      <path d="M108.91 119.474H105.389V122.995H108.91V119.474Z" fill="#007E27"/>
      <path d="M112.431 119.474H108.91V122.995H112.431V119.474Z" fill="#007E27"/>
      <path d="M119.474 119.474H115.953V122.995H119.474V119.474Z" fill="#007E27"/>
      <path d="M122.995 119.474H119.474V122.995H122.995V119.474Z" fill="#007E27"/>
      <path d="M126.517 119.474H122.995V122.995H126.517V119.474Z" fill="#007E27"/>
      <path d="M137.081 119.474H133.559V122.995H137.081V119.474Z" fill="#007E27"/>
      <path d="M140.602 119.474H137.081V122.995H140.602V119.474Z" fill="#007E27"/>
      <path d="M147.645 119.474H144.123V122.995H147.645V119.474Z" fill="#007E27"/>
      <path d="M154.688 119.474H151.166V122.995H154.688V119.474Z" fill="#007E27"/>
      <path d="M17.3552 122.995H13.8338V126.517H17.3552V122.995Z" fill="#007E27"/>
      <path d="M20.8765 122.995H17.3552V126.517H20.8765V122.995Z" fill="#007E27"/>
      <path d="M31.4405 122.995H27.9192V126.517H31.4405V122.995Z" fill="#007E27"/>
      <path d="M34.9619 122.995H31.4405V126.517H34.9619V122.995Z" fill="#007E27"/>
      <path d="M38.4832 122.995H34.9619V126.517H38.4832V122.995Z" fill="#007E27"/>
      <path d="M52.5686 122.995H49.0473V126.517H52.5686V122.995Z" fill="#007E27"/>
      <path d="M56.0899 122.995H52.5686V126.517H56.0899V122.995Z" fill="#007E27"/>
      <path d="M70.1753 122.995H66.654V126.517H70.1753V122.995Z" fill="#007E27"/>
      <path d="M73.6966 122.995H70.1753V126.517H73.6966V122.995Z" fill="#007E27"/>
      <path d="M80.7393 122.995H77.218V126.517H80.7393V122.995Z" fill="#007E27"/>
      <path d="M84.2607 122.995H80.7393V126.517H84.2607V122.995Z" fill="#007E27"/>
      <path d="M91.3034 122.995H87.782V126.517H91.3034V122.995Z" fill="#007E27"/>
      <path d="M98.346 122.995H94.8247V126.517H98.346V122.995Z" fill="#007E27"/>
      <path d="M101.867 122.995H98.346V126.517H101.867V122.995Z" fill="#007E27"/>
      <path d="M105.389 122.995H101.867V126.517H105.389V122.995Z" fill="#007E27"/>
      <path d="M122.995 122.995H119.474V126.517H122.995V122.995Z" fill="#007E27"/>
      <path d="M126.517 122.995H122.995V126.517H126.517V122.995Z" fill="#007E27"/>
      <path d="M130.038 122.995H126.517V126.517H130.038V122.995Z" fill="#007E27"/>
      <path d="M133.559 122.995H130.038V126.517H133.559V122.995Z" fill="#007E27"/>
      <path d="M137.081 122.995H133.559V126.517H137.081V122.995Z" fill="#007E27"/>
      <path d="M140.602 122.995H137.081V126.517H140.602V122.995Z" fill="#007E27"/>
      <path d="M144.123 122.995H140.602V126.517H144.123V122.995Z" fill="#007E27"/>
      <path d="M147.645 122.995H144.123V126.517H147.645V122.995Z" fill="#007E27"/>
      <path d="M151.166 122.995H147.645V126.517H151.166V122.995Z" fill="#007E27"/>
      <path d="M154.688 122.995H151.166V126.517H154.688V122.995Z" fill="#007E27"/>
      <path d="M42.0046 126.517H38.4832V130.038H42.0046V126.517Z" fill="#007E27"/>
      <path d="M49.0473 126.517H45.5259V130.038H49.0473V126.517Z" fill="#007E27"/>
      <path d="M52.5686 126.517H49.0473V130.038H52.5686V126.517Z" fill="#007E27"/>
      <path d="M56.0899 126.517H52.5686V130.038H56.0899V126.517Z" fill="#007E27"/>
      <path d="M63.1326 126.517H59.6113V130.038H63.1326V126.517Z" fill="#007E27"/>
      <path d="M66.654 126.517H63.1326V130.038H66.654V126.517Z" fill="#007E27"/>
      <path d="M70.1753 126.517H66.654V130.038H70.1753V126.517Z" fill="#007E27"/>
      <path d="M73.6966 126.517H70.1753V130.038H73.6966V126.517Z" fill="#007E27"/>
      <path d="M80.7393 126.517H77.218V130.038H80.7393V126.517Z" fill="#007E27"/>
      <path d="M84.2607 126.517H80.7393V130.038H84.2607V126.517Z" fill="#007E27"/>
      <path d="M87.782 126.517H84.2607V130.038H87.782V126.517Z" fill="#007E27"/>
      <path d="M91.3034 126.517H87.782V130.038H91.3034V126.517Z" fill="#007E27"/>
      <path d="M101.867 126.517H98.346V130.038H101.867V126.517Z" fill="#007E27"/>
      <path d="M119.474 126.517H115.953V130.038H119.474V126.517Z" fill="#007E27"/>
      <path d="M126.517 126.517H122.995V130.038H126.517V126.517Z" fill="#007E27"/>
      <path d="M140.602 126.517H137.081V130.038H140.602V126.517Z" fill="#007E27"/>
      <path d="M147.645 126.517H144.123V130.038H147.645V126.517Z" fill="#007E27"/>
      <path d="M13.8338 130.038H10.3125V133.559H13.8338V130.038Z" fill="#007E27"/>
      <path d="M17.3552 130.038H13.8338V133.559H17.3552V130.038Z" fill="#007E27"/>
      <path d="M20.8765 130.038H17.3552V133.559H20.8765V130.038Z" fill="#007E27"/>
      <path d="M24.3979 130.038H20.8765V133.559H24.3979V130.038Z" fill="#007E27"/>
      <path d="M27.9192 130.038H24.3979V133.559H27.9192V130.038Z" fill="#007E27"/>
      <path d="M31.4405 130.038H27.9192V133.559H31.4405V130.038Z" fill="#007E27"/>
      <path d="M34.9619 130.038H31.4405V133.559H34.9619V130.038Z" fill="#007E27"/>
      <path d="M49.0473 130.038H45.5259V133.559H49.0473V130.038Z" fill="#007E27"/>
      <path d="M56.0899 130.038H52.5686V133.559H56.0899V130.038Z" fill="#007E27"/>
      <path d="M63.1326 130.038H59.6113V133.559H63.1326V130.038Z" fill="#007E27"/>
      <path d="M80.7393 130.038H77.218V133.559H80.7393V130.038Z" fill="#007E27"/>
      <path d="M84.2607 130.038H80.7393V133.559H84.2607V130.038Z" fill="#007E27"/>
      <path d="M98.346 130.038H94.8247V133.559H98.346V130.038Z" fill="#007E27"/>
      <path d="M101.867 130.038H98.346V133.559H101.867V130.038Z" fill="#007E27"/>
      <path d="M112.431 130.038H108.91V133.559H112.431V130.038Z" fill="#007E27"/>
      <path d="M115.953 130.038H112.431V133.559H115.953V130.038Z" fill="#007E27"/>
      <path d="M122.995 130.038H119.474V133.559H122.995V130.038Z" fill="#007E27"/>
      <path d="M126.517 130.038H122.995V133.559H126.517V130.038Z" fill="#007E27"/>
      <path d="M133.559 130.038H130.038V133.559H133.559V130.038Z" fill="#007E27"/>
      <path d="M140.602 130.038H137.081V133.559H140.602V130.038Z" fill="#007E27"/>
      <path d="M151.166 130.038H147.645V133.559H151.166V130.038Z" fill="#007E27"/>
      <path d="M13.8338 133.559H10.3125V137.081H13.8338V133.559Z" fill="#007E27"/>
      <path d="M34.9619 133.559H31.4405V137.081H34.9619V133.559Z" fill="#007E27"/>
      <path d="M45.5259 133.559H42.0046V137.081H45.5259V133.559Z" fill="#007E27"/>
      <path d="M49.0473 133.559H45.5259V137.081H49.0473V133.559Z" fill="#007E27"/>
      <path d="M52.5686 133.559H49.0473V137.081H52.5686V133.559Z" fill="#007E27"/>
      <path d="M56.0899 133.559H52.5686V137.081H56.0899V133.559Z" fill="#007E27"/>
      <path d="M66.654 133.559H63.1326V137.081H66.654V133.559Z" fill="#007E27"/>
      <path d="M77.218 133.559H73.6966V137.081H77.218V133.559Z" fill="#007E27"/>
      <path d="M87.782 133.559H84.2607V137.081H87.782V133.559Z" fill="#007E27"/>
      <path d="M91.3034 133.559H87.782V137.081H91.3034V133.559Z" fill="#007E27"/>
      <path d="M98.346 133.559H94.8247V137.081H98.346V133.559Z" fill="#007E27"/>
      <path d="M101.867 133.559H98.346V137.081H101.867V133.559Z" fill="#007E27"/>
      <path d="M105.389 133.559H101.867V137.081H105.389V133.559Z" fill="#007E27"/>
      <path d="M112.431 133.559H108.91V137.081H112.431V133.559Z" fill="#007E27"/>
      <path d="M122.995 133.559H119.474V137.081H122.995V133.559Z" fill="#007E27"/>
      <path d="M126.517 133.559H122.995V137.081H126.517V133.559Z" fill="#007E27"/>
      <path d="M140.602 133.559H137.081V137.081H140.602V133.559Z" fill="#007E27"/>
      <path d="M144.123 133.559H140.602V137.081H144.123V133.559Z" fill="#007E27"/>
      <path d="M147.645 133.559H144.123V137.081H147.645V133.559Z" fill="#007E27"/>
      <path d="M13.8338 137.081H10.3125V140.602H13.8338V137.081Z" fill="#007E27"/>
      <path d="M20.8765 137.081H17.3552V140.602H20.8765V137.081Z" fill="#007E27"/>
      <path d="M24.3979 137.081H20.8765V140.602H24.3979V137.081Z" fill="#007E27"/>
      <path d="M27.9192 137.081H24.3979V140.602H27.9192V137.081Z" fill="#007E27"/>
      <path d="M34.9619 137.081H31.4405V140.602H34.9619V137.081Z" fill="#007E27"/>
      <path d="M42.0046 137.081H38.4832V140.602H42.0046V137.081Z" fill="#007E27"/>
      <path d="M45.5259 137.081H42.0046V140.602H45.5259V137.081Z" fill="#007E27"/>
      <path d="M59.6113 137.081H56.0899V140.602H59.6113V137.081Z" fill="#007E27"/>
      <path d="M63.1326 137.081H59.6113V140.602H63.1326V137.081Z" fill="#007E27"/>
      <path d="M66.654 137.081H63.1326V140.602H66.654V137.081Z" fill="#007E27"/>
      <path d="M73.6966 137.081H70.1753V140.602H73.6966V137.081Z" fill="#007E27"/>
      <path d="M77.218 137.081H73.6966V140.602H77.218V137.081Z" fill="#007E27"/>
      <path d="M80.7393 137.081H77.218V140.602H80.7393V137.081Z" fill="#007E27"/>
      <path d="M87.782 137.081H84.2607V140.602H87.782V137.081Z" fill="#007E27"/>
      <path d="M98.346 137.081H94.8247V140.602H98.346V137.081Z" fill="#007E27"/>
      <path d="M101.867 137.081H98.346V140.602H101.867V137.081Z" fill="#007E27"/>
      <path d="M108.91 137.081H105.389V140.602H108.91V137.081Z" fill="#007E27"/>
      <path d="M115.953 137.081H112.431V140.602H115.953V137.081Z" fill="#007E27"/>
      <path d="M126.517 137.081H122.995V140.602H126.517V137.081Z" fill="#007E27"/>
      <path d="M130.038 137.081H126.517V140.602H130.038V137.081Z" fill="#007E27"/>
      <path d="M133.559 137.081H130.038V140.602H133.559V137.081Z" fill="#007E27"/>
      <path d="M137.081 137.081H133.559V140.602H137.081V137.081Z" fill="#007E27"/>
      <path d="M140.602 137.081H137.081V140.602H140.602V137.081Z" fill="#007E27"/>
      <path d="M147.645 137.081H144.123V140.602H147.645V137.081Z" fill="#007E27"/>
      <path d="M151.166 137.081H147.645V140.602H151.166V137.081Z" fill="#007E27"/>
      <path d="M154.688 137.081H151.166V140.602H154.688V137.081Z" fill="#007E27"/>
      <path d="M13.8338 140.602H10.3125V144.123H13.8338V140.602Z" fill="#007E27"/>
      <path d="M20.8765 140.602H17.3552V144.123H20.8765V140.602Z" fill="#007E27"/>
      <path d="M24.3979 140.602H20.8765V144.123H24.3979V140.602Z" fill="#007E27"/>
      <path d="M27.9192 140.602H24.3979V144.123H27.9192V140.602Z" fill="#007E27"/>
      <path d="M34.9619 140.602H31.4405V144.123H34.9619V140.602Z" fill="#007E27"/>
      <path d="M52.5686 140.602H49.0473V144.123H52.5686V140.602Z" fill="#007E27"/>
      <path d="M63.1326 140.602H59.6113V144.123H63.1326V140.602Z" fill="#007E27"/>
      <path d="M66.654 140.602H63.1326V144.123H66.654V140.602Z" fill="#007E27"/>
      <path d="M73.6966 140.602H70.1753V144.123H73.6966V140.602Z" fill="#007E27"/>
      <path d="M77.218 140.602H73.6966V144.123H77.218V140.602Z" fill="#007E27"/>
      <path d="M84.2607 140.602H80.7393V144.123H84.2607V140.602Z" fill="#007E27"/>
      <path d="M87.782 140.602H84.2607V144.123H87.782V140.602Z" fill="#007E27"/>
      <path d="M94.8247 140.602H91.3034V144.123H94.8247V140.602Z" fill="#007E27"/>
      <path d="M98.346 140.602H94.8247V144.123H98.346V140.602Z" fill="#007E27"/>
      <path d="M105.389 140.602H101.867V144.123H105.389V140.602Z" fill="#007E27"/>
      <path d="M108.91 140.602H105.389V144.123H108.91V140.602Z" fill="#007E27"/>
      <path d="M112.431 140.602H108.91V144.123H112.431V140.602Z" fill="#007E27"/>
      <path d="M115.953 140.602H112.431V144.123H115.953V140.602Z" fill="#007E27"/>
      <path d="M122.995 140.602H119.474V144.123H122.995V140.602Z" fill="#007E27"/>
      <path d="M126.517 140.602H122.995V144.123H126.517V140.602Z" fill="#007E27"/>
      <path d="M137.081 140.602H133.559V144.123H137.081V140.602Z" fill="#007E27"/>
      <path d="M144.123 140.602H140.602V144.123H144.123V140.602Z" fill="#007E27"/>
      <path d="M151.166 140.602H147.645V144.123H151.166V140.602Z" fill="#007E27"/>
      <path d="M13.8338 144.123H10.3125V147.645H13.8338V144.123Z" fill="#007E27"/>
      <path d="M20.8765 144.123H17.3552V147.645H20.8765V144.123Z" fill="#007E27"/>
      <path d="M24.3979 144.123H20.8765V147.645H24.3979V144.123Z" fill="#007E27"/>
      <path d="M27.9192 144.123H24.3979V147.645H27.9192V144.123Z" fill="#007E27"/>
      <path d="M34.9619 144.123H31.4405V147.645H34.9619V144.123Z" fill="#007E27"/>
      <path d="M42.0046 144.123H38.4832V147.645H42.0046V144.123Z" fill="#007E27"/>
      <path d="M49.0473 144.123H45.5259V147.645H49.0473V144.123Z" fill="#007E27"/>
      <path d="M66.654 144.123H63.1326V147.645H66.654V144.123Z" fill="#007E27"/>
      <path d="M80.7393 144.123H77.218V147.645H80.7393V144.123Z" fill="#007E27"/>
      <path d="M84.2607 144.123H80.7393V147.645H84.2607V144.123Z" fill="#007E27"/>
      <path d="M91.3034 144.123H87.782V147.645H91.3034V144.123Z" fill="#007E27"/>
      <path d="M101.867 144.123H98.346V147.645H101.867V144.123Z" fill="#007E27"/>
      <path d="M108.91 144.123H105.389V147.645H108.91V144.123Z" fill="#007E27"/>
      <path d="M119.474 144.123H115.953V147.645H119.474V144.123Z" fill="#007E27"/>
      <path d="M122.995 144.123H119.474V147.645H122.995V144.123Z" fill="#007E27"/>
      <path d="M126.517 144.123H122.995V147.645H126.517V144.123Z" fill="#007E27"/>
      <path d="M140.602 144.123H137.081V147.645H140.602V144.123Z" fill="#007E27"/>
      <path d="M151.166 144.123H147.645V147.645H151.166V144.123Z" fill="#007E27"/>
      <path d="M13.8338 147.645H10.3125V151.166H13.8338V147.645Z" fill="#007E27"/>
      <path d="M34.9619 147.645H31.4405V151.166H34.9619V147.645Z" fill="#007E27"/>
      <path d="M42.0046 147.645H38.4832V151.166H42.0046V147.645Z" fill="#007E27"/>
      <path d="M52.5686 147.645H49.0473V151.166H52.5686V147.645Z" fill="#007E27"/>
      <path d="M59.6113 147.645H56.0899V151.166H59.6113V147.645Z" fill="#007E27"/>
      <path d="M70.1753 147.645H66.654V151.166H70.1753V147.645Z" fill="#007E27"/>
      <path d="M80.7393 147.645H77.218V151.166H80.7393V147.645Z" fill="#007E27"/>
      <path d="M84.2607 147.645H80.7393V151.166H84.2607V147.645Z" fill="#007E27"/>
      <path d="M94.8247 147.645H91.3034V151.166H94.8247V147.645Z" fill="#007E27"/>
      <path d="M101.867 147.645H98.346V151.166H101.867V147.645Z" fill="#007E27"/>
      <path d="M108.91 147.645H105.389V151.166H108.91V147.645Z" fill="#007E27"/>
      <path d="M115.953 147.645H112.431V151.166H115.953V147.645Z" fill="#007E27"/>
      <path d="M122.995 147.645H119.474V151.166H122.995V147.645Z" fill="#007E27"/>
      <path d="M144.123 147.645H140.602V151.166H144.123V147.645Z" fill="#007E27"/>
      <path d="M13.8338 151.166H10.3125V154.688H13.8338V151.166Z" fill="#007E27"/>
      <path d="M17.3552 151.166H13.8338V154.688H17.3552V151.166Z" fill="#007E27"/>
      <path d="M20.8765 151.166H17.3552V154.688H20.8765V151.166Z" fill="#007E27"/>
      <path d="M24.3979 151.166H20.8765V154.688H24.3979V151.166Z" fill="#007E27"/>
      <path d="M27.9192 151.166H24.3979V154.688H27.9192V151.166Z" fill="#007E27"/>
      <path d="M31.4405 151.166H27.9192V154.688H31.4405V151.166Z" fill="#007E27"/>
      <path d="M34.9619 151.166H31.4405V154.688H34.9619V151.166Z" fill="#007E27"/>
      <path d="M42.0046 151.166H38.4832V154.688H42.0046V151.166Z" fill="#007E27"/>
      <path d="M59.6113 151.166H56.0899V154.688H59.6113V151.166Z" fill="#007E27"/>
      <path d="M63.1326 151.166H59.6113V154.688H63.1326V151.166Z" fill="#007E27"/>
      <path d="M70.1753 151.166H66.654V154.688H70.1753V151.166Z" fill="#007E27"/>
      <path d="M77.218 151.166H73.6966V154.688H77.218V151.166Z" fill="#007E27"/>
      <path d="M94.8247 151.166H91.3034V154.688H94.8247V151.166Z" fill="#007E27"/>
      <path d="M98.346 151.166H94.8247V154.688H98.346V151.166Z" fill="#007E27"/>
      <path d="M105.389 151.166H101.867V154.688H105.389V151.166Z" fill="#007E27"/>
      <path d="M108.91 151.166H105.389V154.688H108.91V151.166Z" fill="#007E27"/>
      <path d="M115.953 151.166H112.431V154.688H115.953V151.166Z" fill="#007E27"/>
      <path d="M119.474 151.166H115.953V154.688H119.474V151.166Z" fill="#007E27"/>
      <path d="M122.995 151.166H119.474V154.688H122.995V151.166Z" fill="#007E27"/>
      <path d="M126.517 151.166H122.995V154.688H126.517V151.166Z" fill="#007E27"/>
      <path d="M140.602 151.166H137.081V154.688H140.602V151.166Z" fill="#007E27"/>
      <path d="M147.645 151.166H144.123V154.688H147.645V151.166Z" fill="#007E27"/>
      <path d="M151.166 151.166H147.645V154.688H151.166V151.166Z" fill="#007E27"/>
    </g>
    <defs>
      <clipPath id="clip0_69_1524">
        <rect width="165" height="165" fill="white"/>
      </clipPath>
    </defs>
  </svg>