<svg xmlns="http://www.w3.org/2000/svg" width="40" height="40" viewBox="0 0 40 40" fill="none">
    <path
        d="M19.9997 3.33398C10.7997 3.33398 3.33301 10.8007 3.33301 20.0007C3.33301 29.2007 10.7997 36.6673 19.9997 36.6673C29.1997 36.6673 36.6663 29.2007 36.6663 20.0007C36.6663 10.8007 29.1997 3.33398 19.9997 3.33398ZM27.733 14.6673C27.483 17.3007 26.3997 23.7006 25.8497 26.6507C25.6163 27.9007 25.1497 28.3173 24.7163 28.3673C23.7497 28.4507 23.0163 27.734 22.083 27.1173C20.6163 26.1507 19.783 25.5507 18.3663 24.6173C16.7163 23.534 17.783 22.934 18.733 21.9673C18.983 21.7173 23.2497 17.834 23.333 17.484C23.3446 17.431 23.343 17.3759 23.3285 17.3237C23.314 17.2714 23.2869 17.2234 23.2497 17.184C23.1497 17.1007 23.0163 17.134 22.8997 17.1507C22.7497 17.184 20.4163 18.734 15.8663 21.8006C15.1997 22.2507 14.5997 22.484 14.0663 22.4673C13.4663 22.4506 12.333 22.134 11.483 21.8507C10.433 21.5173 9.61634 21.334 9.68301 20.7507C9.71634 20.4507 10.133 20.1507 10.9163 19.834C15.783 17.7173 19.0163 16.3173 20.633 15.6507C25.2663 13.7173 26.2163 13.384 26.8497 13.384C26.983 13.384 27.2997 13.4173 27.4997 13.584C27.6663 13.7173 27.7163 13.9007 27.733 14.034C27.7163 14.134 27.7497 14.434 27.733 14.6673Z"
        fill="#007E27" />
</svg>