<svg xmlns="http://www.w3.org/2000/svg" width="40" height="40" viewBox="0 0 40 40" fill="none">
    <path d="M19.9997 3.33398C16.7033 3.33398 13.481 4.31147 10.7402 6.14282C7.99936 7.97418 5.86315 10.5772 4.60169 13.6226C3.34023 16.668 3.01017 20.0191 3.65326 23.2522C4.29635 26.4852 5.88369 29.4549 8.21457 31.7858C10.5454 34.1166 13.5152 35.704 16.7482 36.3471C19.9812 36.9902 23.3323 36.6601 26.3777 35.3986C29.4232 34.1372 32.0261 32.001 33.8575 29.2602C35.6889 26.5193 36.6663 23.297 36.6663 20.0007C36.6619 15.5817 34.9046 11.3451 31.7799 8.22041C28.6553 5.09576 24.4186 3.3384 19.9997 3.33398ZM29.898 16.189V17.2657C29.898 17.3481 29.8816 17.4296 29.8495 17.5056C29.8175 17.5815 29.7706 17.6502 29.7115 17.7077C29.6525 17.7652 29.5825 17.8103 29.5058 17.8402C29.429 17.8702 29.3471 17.8845 29.2647 17.8823C27.5049 17.758 25.8214 17.1154 24.4263 16.0357V23.9157C24.426 24.7878 24.2519 25.6511 23.9142 26.4552C23.5765 27.2593 23.0821 27.9881 22.4597 28.599C21.8322 29.2259 21.0859 29.7213 20.2646 30.0561C19.4432 30.3909 18.5633 30.5585 17.6763 30.549C15.8928 30.5464 14.1809 29.8466 12.9063 28.599C12.0953 27.7813 11.5112 26.7666 11.2113 25.6547C10.9115 24.5427 10.9063 23.3719 11.1963 22.2573C11.4613 21.1873 11.9963 20.204 12.7513 19.4023C13.3144 18.7141 14.0241 18.1605 14.8287 17.7819C15.6332 17.4032 16.5122 17.2092 17.4013 17.214H18.768V20.0523C18.7686 20.1348 18.7516 20.2164 18.7182 20.2917C18.6848 20.3671 18.6357 20.4344 18.5742 20.4893C18.5127 20.5442 18.4402 20.5853 18.3615 20.61C18.2829 20.6347 18.1998 20.6423 18.118 20.6323C17.3245 20.394 16.4694 20.473 15.7331 20.8528C14.9967 21.2326 14.4366 21.8835 14.1708 22.6682C13.9049 23.453 13.9542 24.3103 14.3081 25.0594C14.662 25.8085 15.293 26.391 16.068 26.684C16.518 26.9423 17.0213 27.094 17.538 27.129C17.938 27.1457 18.338 27.0957 18.718 26.9757C19.3524 26.7616 19.9042 26.355 20.2965 25.8125C20.6887 25.2699 20.9019 24.6185 20.9063 23.949V9.59065C20.9063 9.43181 20.9693 9.27945 21.0815 9.16698C21.1937 9.0545 21.3458 8.99109 21.5047 8.99065H23.863C24.0162 8.99084 24.1636 9.04965 24.2749 9.15502C24.3861 9.26038 24.4528 9.40432 24.4613 9.55732C24.5473 10.2927 24.7809 11.0032 25.148 11.6461C25.5152 12.289 26.0084 12.8512 26.598 13.299C27.3948 13.8971 28.3412 14.2639 29.333 14.359C29.4816 14.3717 29.6205 14.4378 29.7241 14.545C29.8276 14.6523 29.8888 14.7934 29.8963 14.9423L29.898 16.189Z" fill="#007E27"/>
  </svg>