<svg width="89" height="30" viewBox="0 0 89 30" fill="none" xmlns="http://www.w3.org/2000/svg">
<path d="M14.8584 28.0107C22.1816 28.0107 28.1181 22.0741 28.1181 14.751C28.1181 7.42782 22.1816 1.49121 14.8584 1.49121C7.53522 1.49121 1.59863 7.42782 1.59863 14.751C1.59863 22.0741 7.53522 28.0107 14.8584 28.0107Z" fill="#FF5733"/>
<path d="M12.584 4.33628C13.8197 3.10064 15.8133 3.10064 17.0489 4.33628L25.1896 12.4769C26.4252 13.7126 26.4252 15.7062 25.1896 16.9419L17.0489 25.0825C15.8133 26.3182 13.8197 26.3182 12.584 25.0825L4.44333 16.9419C3.20769 15.7062 3.20769 13.7126 4.44333 12.4769L12.584 4.33628Z" fill="#7000FF"/>
<path d="M5.87695 8.93611C5.87695 7.19168 7.28914 5.77954 9.03357 5.77954H20.5904C22.3349 5.77954 23.747 7.19168 23.747 8.93611V20.493C23.747 22.2374 22.3349 23.6496 20.5904 23.6496H9.04392C7.2995 23.6496 5.88734 22.2374 5.88734 20.493L5.87695 8.93611Z" fill="#7000FF"/>
<path d="M18.5245 10.6702C18.919 10.7532 19.3136 10.8363 19.6874 10.9298C20.0923 11.0336 20.4869 11.1582 20.8919 11.2725C20.9438 11.2932 20.975 11.314 20.975 11.3762C20.975 12.6223 20.9853 13.8683 20.9645 15.1247C20.9438 16.4642 20.518 17.6791 19.7082 18.7486C18.8048 19.9323 17.6107 20.7007 16.157 21.0537C15.5859 21.1887 15.0044 21.2406 14.4125 21.1991C13.0108 21.116 11.7752 20.628 10.716 19.7142C9.62576 18.7797 8.94047 17.596 8.66011 16.1735C8.57704 15.7685 8.5459 15.3635 8.5459 14.9482C8.5459 13.7645 8.5459 12.5912 8.5459 11.4075C8.5459 11.3244 8.56661 11.3036 8.63933 11.2828C9.39733 11.044 10.1761 10.8467 10.9653 10.7013C10.9756 10.7013 10.9756 10.7013 10.9964 10.7013C10.9964 10.7325 10.9964 10.7637 10.9964 10.7948C10.9964 12.2797 10.986 13.7645 10.9964 15.239C11.0068 15.9865 11.1003 16.7238 11.3598 17.4299C11.5571 17.9906 11.8582 18.489 12.3047 18.9043C12.72 19.2885 13.208 19.5273 13.7584 19.6415C14.5372 19.8077 15.3055 19.7973 16.0635 19.5585C16.9565 19.2781 17.5795 18.6759 17.9845 17.8348C18.2025 17.3883 18.3272 16.9107 18.4102 16.4227C18.5037 15.8827 18.5245 15.3324 18.5245 14.7821C18.5245 13.4634 18.5245 12.1342 18.5245 10.8155C18.5245 10.7532 18.5245 10.7221 18.5245 10.6702Z" fill="white"/>
<path d="M15.8446 13.4218C15.1178 13.4218 14.3909 13.4218 13.6641 13.4218C13.6641 11.7189 13.6641 10.016 13.6641 8.31311C13.8925 8.24039 15.4085 8.24039 15.8446 8.30275C15.8446 10.0056 15.8446 11.7189 15.8446 13.4218Z" fill="white"/>
<path d="M58.916 9.76684C58.916 10.9402 58.2515 11.4801 57.265 11.4801C56.2786 11.4801 55.6452 10.9506 55.6452 9.76684V5.90417H53.5166V9.84991C53.5166 12.4146 55.666 13.4218 57.2754 13.4218C58.8848 13.4218 61.0446 12.4146 61.0446 9.84991V5.90417H58.916V9.76684Z" fill="#7000FF"/>
<path d="M51.7206 7.70055V5.90417H44.8156V7.70055H48.8963L44.6494 11.4801V13.2765H51.9698V11.4801H47.4737L51.7206 7.70055Z" fill="#7000FF"/>
<path d="M71.6773 5.75879C70.3271 5.75879 69.3096 6.30911 68.8111 7.1398C68.3023 6.30911 67.1913 5.75879 66.0388 5.75879C63.7648 5.75879 62.5811 7.2021 62.5811 8.98803V13.2765H64.7097V9.29953C64.7097 8.4481 65.1561 7.6901 66.1945 7.6901C66.4022 7.67975 66.6202 7.71089 66.8071 7.7836C67.0044 7.85625 67.1809 7.97046 67.3367 8.12625C67.4821 8.2716 67.5963 8.45853 67.6793 8.65582C67.7521 8.8531 67.7832 9.06075 67.7728 9.26839V13.2868H69.9014V9.26839C69.9014 8.41696 70.4102 7.6901 71.4278 7.6901C72.4451 7.6901 72.9337 8.4481 72.9337 9.29953V13.2868H75.0623V8.99846C75.0623 7.21246 73.9616 5.76917 71.6773 5.75879Z" fill="#7000FF"/>
<path d="M41.1293 9.76684C41.1293 10.9402 40.4647 11.4801 39.4887 11.4801C38.5127 11.4801 37.8585 10.9506 37.8585 9.76684V5.90417H35.7402V9.84991C35.7402 12.4146 37.8792 13.4218 39.4991 13.4218C41.1189 13.4218 43.258 12.4146 43.258 9.84991V5.90417H41.1293V9.76684Z" fill="#7000FF"/>
<path d="M61.3038 19.8907C61.3038 18.3332 60.1409 17.5544 57.815 17.5544C56.2159 17.5544 54.3469 17.9905 54.3469 19.7038C54.3469 20.6072 54.8868 21.3237 55.6863 21.5729C56.5066 21.8324 57.3373 21.9467 58.1784 22.0194C58.6457 22.0609 59.5283 22.1959 59.5283 22.715C59.5179 23.1927 58.9779 23.4315 57.9084 23.4315C56.7974 23.4315 56.3198 23.1823 56.3198 22.5385V22.3204H54.2119V22.5385C54.2119 24.1479 55.4371 24.9475 57.9084 24.9475C60.3901 24.9579 61.6361 24.1895 61.6361 22.6839C61.6361 21.5417 60.8262 20.846 59.8086 20.6383C58.8326 20.441 57.8046 20.4099 56.9947 20.2022C56.6416 20.1088 56.4548 19.9115 56.4548 19.7038C56.4548 19.2677 56.8908 19.0497 57.7735 19.0497C58.6561 19.0497 59.2064 19.1742 59.2064 19.8699L61.3038 19.8907Z" fill="#7000FF"/>
<path d="M40.9212 21.0641C40.9212 19.9427 40.2775 19.4234 39.3429 19.4234C38.3876 19.4234 37.7751 19.9427 37.7751 21.0641V24.7917H35.7295V21.0017C35.7295 18.5304 37.7958 17.5544 39.3429 17.5544C40.8797 17.5544 42.9564 18.5201 42.9564 21.0017V24.7917H40.9108L40.9212 21.0641Z" fill="#7000FF"/>
<path d="M52.3433 22.2997V17.6894H50.3185L50.3289 18.8108C49.8928 18.1567 49.114 17.5544 47.7434 17.5544C45.3759 17.5544 44.1611 19.3923 44.1611 21.2406C44.1196 23.1096 45.4901 24.9682 47.6396 24.9682C48.7714 24.9682 49.8097 24.4594 50.3081 23.5665C50.5158 24.1479 51.0142 24.8021 52.0733 24.8021H53.2363V23.0784H52.904C52.5302 23.0681 52.3433 22.9123 52.3433 22.2997ZM48.1795 23.1719C47.0166 23.1719 46.1444 22.3724 46.1444 21.2406C46.1444 20.1295 47.0166 19.3404 48.1795 19.3404C49.384 19.3404 50.2458 20.1192 50.2458 21.2406C50.2458 22.3724 49.384 23.1719 48.1795 23.1719Z" fill="#7000FF"/>
<path d="M64.9176 17.6893H62.8721V24.7917H64.9176V17.6893Z" fill="#7000FF"/>
<path d="M72.5496 17.6893L70.6392 22.715L68.3548 17.6893H65.9873L69.6112 25.124C69.2685 25.965 68.9882 26.2143 68.3029 26.2143H67.2437V28.0002H68.4794C70.0057 28.0002 70.8364 27.1591 71.6774 25.1343L74.7617 17.6998L72.5496 17.6893Z" fill="#7000FF"/>
<path d="M82.8911 22.2997V17.6894H80.8661L80.8768 18.8108C80.4303 18.1567 79.6618 17.5544 78.2811 17.5544C75.9132 17.5544 74.7089 19.3923 74.7089 21.2406C74.6675 23.1096 76.0382 24.9682 78.1875 24.9682C79.3296 24.9682 80.3682 24.4594 80.8661 23.5665C81.0639 24.1479 81.5725 24.8021 82.6318 24.8021H83.7946V23.0784H83.4625C83.0575 23.0681 82.8911 22.9123 82.8911 22.2997ZM78.7168 23.1719C77.5539 23.1719 76.6818 22.3724 76.6818 21.2406C76.6818 20.1295 77.5539 19.3404 78.7168 19.3404C79.9111 19.3404 80.7832 20.1192 80.7832 21.2406C80.7832 22.3724 79.9111 23.1719 78.7168 23.1719Z" fill="#7000FF"/>
</svg>
