<svg xmlns="http://www.w3.org/2000/svg" width="40" height="40" viewBox="0 0 40 40" fill="none">
    <path d="M16.6663 25.0007L25.3163 20.0007L16.6663 15.0007V25.0007ZM35.933 11.9507C36.1497 12.734 36.2997 13.784 36.3997 15.1173C36.5163 16.4507 36.5663 17.6007 36.5663 18.6007L36.6663 20.0007C36.6663 23.6507 36.3997 26.334 35.933 28.0507C35.5163 29.5507 34.5497 30.5173 33.0497 30.934C32.2663 31.1507 30.833 31.3007 28.633 31.4007C26.4663 31.5173 24.483 31.5673 22.6497 31.5673L19.9997 31.6673C13.0163 31.6673 8.66634 31.4007 6.94967 30.934C5.44967 30.5173 4.48301 29.5507 4.06634 28.0507C3.84967 27.2673 3.69967 26.2173 3.59967 24.884C3.48301 23.5507 3.43301 22.4007 3.43301 21.4007L3.33301 20.0007C3.33301 16.3507 3.59967 13.6673 4.06634 11.9507C4.48301 10.4507 5.44967 9.48398 6.94967 9.06732C7.73301 8.85065 9.16634 8.70065 11.3663 8.60065C13.533 8.48398 15.5163 8.43398 17.3497 8.43398L19.9997 8.33398C26.983 8.33398 31.333 8.60065 33.0497 9.06732C34.5497 9.48398 35.5163 10.4507 35.933 11.9507Z" fill="#007E27"/>
  </svg>