<svg width="122" height="30" viewBox="0 0 122 30" fill="none" xmlns="http://www.w3.org/2000/svg">
<mask id="mask0_321_3509" style="mask-type:luminance" maskUnits="userSpaceOnUse" x="0" y="0" width="122" height="30">
<path d="M121.875 0H0V30H121.875V0Z" fill="white"/>
</mask>
<g mask="url(#mask0_321_3509)">
<path d="M13.3998 29.935H13.3728H13.3648C10.4301 29.6401 7.64963 28.4776 5.37833 26.5957C3.10705 24.7139 1.44791 22.198 0.612584 19.3692C-0.22274 16.5404 -0.196365 13.5268 0.688345 10.713C1.57305 7.89921 3.27598 5.41281 5.57985 3.571L5.60985 3.545C7.94299 1.62737 10.7681 0.403876 13.7628 0.014L13.8998 0L15.1758 3.142L15.0348 3.153C12.38 3.31819 9.84171 4.30275 7.76985 5.971L7.66985 6.049C7.61885 6.09 7.56985 6.132 7.51785 6.175L7.47885 6.207C5.70677 7.66829 4.40865 9.62293 3.74917 11.8231C3.08968 14.0233 3.09855 16.3697 3.77465 18.5648C4.45075 20.7599 5.76361 22.7047 7.54671 24.1526C9.32978 25.6004 11.5027 26.486 13.7898 26.697C17.1227 26.9749 20.4326 25.9429 23.0168 23.82C23.1375 23.72 23.2572 23.618 23.3758 23.514L24.6538 26.661C21.4479 29.1291 17.4295 30.2981 13.3998 29.935ZM16.8078 7.391H12.8488L7.56885 20.385H10.9558L14.8278 10.349L18.6998 20.385H22.0868L16.8078 7.391Z" fill="#39B980"/>
<path d="M45.9382 5.16796H43.4512V19.716H45.9382V5.16796ZM49.3942 8.07696C50.2942 8.07696 50.9612 7.42596 50.9612 6.50596C50.967 6.29847 50.9304 6.09198 50.8537 5.89908C50.777 5.70619 50.6619 5.53094 50.5152 5.38402C50.3686 5.23711 50.1936 5.12161 50.0008 5.04458C49.8081 4.96754 49.6017 4.93058 49.3942 4.93596C48.4942 4.93596 47.7852 5.60696 47.7852 6.50596C47.7852 7.42596 48.4742 8.07696 49.3942 8.07696ZM50.6182 9.32196H48.1102V19.716H50.6182V9.32196ZM58.0902 6.99996C58.5502 6.99996 59.1072 7.13496 59.7572 7.42196L60.5422 5.46796C59.6815 5.00963 58.7222 4.76733 57.7472 4.76196C55.2772 4.76196 53.6102 6.21496 53.6102 8.83696V9.31796H51.9642V11.425H53.6102V19.712H56.1002V11.429H59.3552V9.32196H56.1002V8.89996C56.1002 7.67596 56.8002 6.99996 58.0892 6.99996H58.0902Z" fill="#111827"/>
<path d="M38.9856 14.51C38.9856 15.41 38.6976 16.157 38.1236 16.769C37.5496 17.381 36.6606 17.686 35.7616 17.686C34.8626 17.686 34.1286 17.386 33.5616 16.769C32.9946 16.152 32.7216 15.41 32.7216 14.51C32.7216 13.628 33.0016 12.878 33.5616 12.269C34.1216 11.66 34.8616 11.349 35.7616 11.349C36.6616 11.349 37.5496 11.657 38.1236 12.269C38.6949 12.8733 39.0047 13.6786 38.9856 14.51ZM38.9296 10.287C37.9996 9.487 36.8616 9.073 35.5396 9.073C34.0666 9.073 32.6586 9.588 31.6836 10.605C30.7086 11.622 30.2266 12.919 30.2266 14.472C30.2266 16.025 30.7076 17.343 31.6836 18.395C32.6596 19.447 34.0456 19.965 35.5396 19.965C36.8996 19.965 37.9096 19.571 38.9296 18.755V19.716H41.2996V9.322H38.9296V10.287Z" fill="#111827"/>
<path d="M65.3994 19.679V9.39996H67.1994V10.857C67.8514 9.70696 68.9378 9.13196 70.4584 9.13196C71.6087 9.13196 72.5751 9.5026 73.3587 10.244C74.1416 10.9853 74.5316 12.052 74.5273 13.444V19.674H72.6994V13.967C72.6994 12.983 72.4566 12.2096 71.9701 11.647C71.4973 11.1096 70.8638 10.843 70.0704 10.847C69.6851 10.8363 69.3019 10.9097 68.9478 11.062C68.5936 11.2143 68.2768 11.4419 68.0194 11.729C67.4954 12.329 67.2334 13.083 67.2334 13.991V19.684L65.3994 19.679Z" fill="#111827"/>
<path d="M85.0459 9.40003H86.8102V19.679H85.0459V18.223C84.1259 19.3604 82.9187 19.929 81.423 19.929C79.9402 19.929 78.713 19.405 77.7423 18.357C76.7716 17.309 76.2859 16.0117 76.2852 14.465C76.2852 12.919 76.7709 11.654 77.7423 10.67C78.7144 9.66003 79.9409 9.15503 81.423 9.15503C82.8802 9.15503 84.0873 9.73667 85.0459 10.9V9.40003ZM84.183 11.912C83.5323 11.196 82.683 10.838 81.6344 10.838C80.5859 10.838 79.7409 11.1974 79.1002 11.916C78.4609 12.632 78.1416 13.5074 78.1423 14.542C78.143 15.5767 78.4623 16.452 79.1002 17.168C79.7394 17.884 80.583 18.242 81.6309 18.242C82.6794 18.242 83.5287 17.884 84.1802 17.168C84.8323 16.4527 85.158 15.571 85.158 14.523C85.1602 13.4877 84.8352 12.6187 84.183 11.916V11.912Z" fill="#111827"/>
<path d="M89.9689 19.3541C89.2753 18.9676 88.7089 18.3881 88.3389 17.6861L89.6617 16.6701C90.2496 17.7567 91.0996 18.3001 92.2117 18.3001C92.7446 18.3001 93.1853 18.1594 93.5339 17.8781C93.6896 17.7625 93.8167 17.6117 93.9031 17.4379C93.9903 17.2641 94.0346 17.0723 94.0339 16.8781C94.0339 16.3281 93.7203 15.8947 93.0939 15.5781C92.9274 15.4887 92.4996 15.2971 91.8096 15.0031C91.1839 14.7364 90.7617 14.5447 90.5446 14.4281C89.4967 13.8534 88.9724 13.0227 88.9724 11.9361C88.9624 11.5471 89.0403 11.161 89.1996 10.806C89.3589 10.4511 89.5953 10.1363 89.8924 9.88506C90.4924 9.33506 91.3046 9.06006 92.3274 9.06006C93.7946 9.06006 94.8803 9.60342 95.5853 10.6901L94.4153 11.8001C93.8539 11.0067 93.1203 10.6104 92.2153 10.6111C91.7674 10.6111 91.4096 10.7324 91.1417 10.9751C91.0124 11.0823 90.9096 11.2173 90.8403 11.3701C90.771 11.5229 90.7374 11.6893 90.7417 11.8571C90.7417 12.3944 91.0289 12.7971 91.6039 13.0651L92.7346 13.5651C93.2089 13.7431 93.6703 13.9546 94.1146 14.1981C95.2782 14.7861 95.8596 15.6487 95.8596 16.7861C95.8596 17.6681 95.5146 18.4091 94.8246 19.0091C94.121 19.6091 93.2332 19.9091 92.1596 19.9091C91.3932 19.9173 90.6382 19.7261 89.9689 19.3541Z" fill="#111827"/>
<path d="M97.5393 7.56404C97.4121 7.44354 97.3128 7.29761 97.2464 7.13572C97.18 6.97386 97.1493 6.79981 97.155 6.62505C97.15 6.45325 97.1821 6.28238 97.2478 6.12378C97.3143 5.96517 97.4135 5.82244 97.5393 5.70505C97.6671 5.58372 97.8178 5.48899 97.9828 5.42634C98.1478 5.36369 98.3235 5.33436 98.5 5.34005C98.6714 5.33763 98.8414 5.37047 99 5.43653C99.1578 5.50258 99.3014 5.60045 99.42 5.72405C99.5443 5.83836 99.6421 5.97768 99.7085 6.13283C99.775 6.28798 99.8071 6.4554 99.8043 6.62405C99.81 6.79881 99.7785 6.97286 99.7128 7.13472C99.6464 7.29661 99.5464 7.44254 99.42 7.56304C99.3014 7.68654 99.1578 7.78426 99 7.85011C98.8414 7.91597 98.6714 7.94861 98.5 7.94604C98.3221 7.95154 98.145 7.9204 97.98 7.85468C97.8143 7.78904 97.6643 7.69011 97.5393 7.56404ZM99.3793 19.679H97.5393V9.40004H99.3793V19.679Z" fill="#111827"/>
<path d="M108.715 9.40002H110.747L106.435 20.83C105.628 22.9767 104.44 24.05 102.868 24.05C102.216 24.05 101.667 23.9167 101.22 23.65L101.45 22.039C101.839 22.227 102.263 22.3315 102.695 22.346C103.54 22.346 104.217 21.746 104.727 20.546L105.111 19.646L100.645 9.40002H102.772L105.955 17.107L108.715 9.40002Z" fill="#111827"/>
<path d="M119.787 9.40003H121.551V19.679H119.787V18.223C118.867 19.3604 117.659 19.929 116.164 19.929C114.681 19.929 113.454 19.405 112.483 18.357C111.512 17.309 111.027 16.0117 111.027 14.465C111.027 12.919 111.512 11.654 112.483 10.67C113.455 9.66003 114.682 9.15503 116.164 9.15503C117.621 9.15503 118.829 9.73667 119.787 10.9V9.40003ZM118.925 11.912C118.273 11.196 117.423 10.838 116.375 10.838C115.327 10.838 114.484 11.196 113.845 11.912C113.205 12.628 112.885 13.5034 112.886 14.538C112.887 15.5727 113.207 16.448 113.845 17.164C114.483 17.88 115.327 18.238 116.375 18.238C117.424 18.238 118.274 17.88 118.925 17.164C119.575 16.4547 119.9 15.5744 119.9 14.523C119.9 13.4877 119.575 12.6187 118.925 11.916V11.912Z" fill="#111827"/>
</g>
</svg>
