<svg width="148" height="60" viewBox="0 0 148 60" fill="none" xmlns="http://www.w3.org/2000/svg">
<rect width="147.667" height="60" rx="8" fill="#154060"/>
<g clip-path="url(#clip0_1574_1856)">
<path d="M44.583 25.1423L48.7847 35.2849C48.2282 35.4101 47.6578 35.4658 47.0874 35.4797C46.7674 35.4797 46.4334 35.4519 46.1134 35.3962L45.3065 33.3649H41.1047L40.2978 35.3962C39.8943 35.438 39.5047 35.4658 39.1013 35.4658C38.6282 35.4797 38.1552 35.4241 37.71 35.2849L41.9395 25.1423C42.3847 25.0727 42.8439 25.0449 43.303 25.0449C43.7204 25.0449 44.1517 25.0727 44.583 25.1423ZM41.9256 31.3893H44.4995L43.5534 29.0241L43.2056 28.0362L42.8856 29.0241L41.9256 31.3893Z" fill="white"/>
<path d="M58.4408 25.0587C58.886 25.0587 59.3312 25.0865 59.7765 25.1561V35.3404C58.9417 35.4795 58.093 35.5213 57.2582 35.4656L52.8895 29.65L52.5139 29.0378L52.5834 29.7752V35.3961C52.1521 35.4517 51.7069 35.4935 51.2617 35.4935C50.8304 35.4935 50.3991 35.4517 49.9678 35.3961V25.2395C50.3713 25.1282 50.7747 25.0726 51.1782 25.0587C51.6095 25.0308 52.0547 25.0448 52.486 25.0865L56.8408 31.0413L57.2304 31.6674L57.1608 30.8465V25.1561C57.5921 25.1004 58.0234 25.0726 58.4408 25.0587Z" fill="white"/>
<path d="M67.4417 35.6883C66.6348 35.7023 65.8417 35.5631 65.0765 35.2988C64.3809 35.0623 63.7409 34.6727 63.1843 34.1857C62.6417 33.6988 62.2243 33.1144 61.9461 32.4466C61.3617 31.0414 61.3617 29.4692 61.9461 28.064C62.2243 27.3962 62.6556 26.8118 63.1843 26.3249C63.7409 25.824 64.3809 25.4484 65.0765 25.1979C65.8278 24.9336 66.6348 24.7944 67.4417 24.7944C68.2487 24.7944 69.0556 24.9197 69.8069 25.184C70.5026 25.4205 71.1565 25.7962 71.6991 26.297C72.2278 26.784 72.6452 27.3683 72.9374 28.0362C73.2296 28.7318 73.3826 29.4831 73.3826 30.2483C73.3826 30.9857 73.2435 31.7231 72.9374 32.4188C72.6591 33.0866 72.2278 33.671 71.6991 34.1579C71.1426 34.6588 70.5026 35.0344 69.793 35.2849C69.0417 35.5631 68.2487 35.6883 67.4417 35.6883ZM67.4417 33.4344C68.2765 33.4762 69.0835 33.1562 69.6817 32.5579C70.2661 31.9318 70.5722 31.097 70.5304 30.2483C70.5722 29.3857 70.2661 28.551 69.6817 27.911C68.4156 26.7562 66.4678 26.7562 65.2017 27.911C64.6174 28.537 64.3113 29.3857 64.353 30.2483C64.3113 31.097 64.6174 31.9318 65.2017 32.5579C65.7861 33.1562 66.6069 33.4762 67.4417 33.4344Z" fill="white"/>
<path d="M81.7312 31.3475L84.3747 35.2988C83.6373 35.4519 82.8999 35.5075 82.1486 35.4936L81.4808 35.4797L79.1573 31.8901H79.0321L77.7382 31.8762V35.424C77.3069 35.4936 76.8756 35.5214 76.4304 35.5214C75.9852 35.5214 75.5399 35.4936 75.0947 35.424V25.3093C75.6095 25.2119 76.2356 25.1284 76.9452 25.0727C77.6547 25.0171 78.3086 24.9753 78.9069 24.9753C79.5191 24.9753 80.1173 25.031 80.7156 25.1284C81.2582 25.2119 81.7869 25.3927 82.2739 25.6571C83.2199 26.1719 83.7904 27.1875 83.7347 28.2588C83.7347 28.6345 83.6652 29.0101 83.5539 29.3719C83.4286 29.7893 83.1921 30.1788 82.886 30.4988C82.566 30.8466 82.1765 31.1388 81.7312 31.3475ZM77.7382 27.0345V29.8866L79.1295 29.9006C79.6443 29.9423 80.1591 29.7893 80.5765 29.4832C80.8826 29.2188 81.0634 28.8153 81.0495 28.4119C81.0634 28.0084 80.8826 27.6188 80.5626 27.3684C80.1312 27.0901 79.6304 26.951 79.1156 26.9788C78.6565 26.9788 78.1973 26.9927 77.7382 27.0345Z" fill="white"/>
<path d="M92.4854 30.1649C92.9028 30.2901 93.2923 30.4988 93.6262 30.7771C93.9184 30.9997 94.141 31.3058 94.2663 31.6536C94.7115 32.8362 94.2941 34.1719 93.2367 34.8675C92.4297 35.4101 91.1915 35.6884 89.5219 35.6884C88.2697 35.7023 87.0176 35.6049 85.7793 35.3962V25.3093C86.9897 25.0866 88.2141 24.9893 89.4523 24.9893C92.4436 24.9893 93.9462 25.9632 93.9462 27.9249C93.9462 29.024 93.4593 29.7614 92.4854 30.1649ZM89.6471 26.9232C89.2715 26.9232 88.8541 26.9371 88.4089 26.9649V29.2745H89.7445C90.1758 29.3162 90.6071 29.2049 90.9828 28.9684C91.2471 28.7458 91.4002 28.398 91.3723 28.0501C91.3862 27.7162 91.2193 27.3962 90.9271 27.2153C90.5376 26.9927 90.0923 26.8953 89.6471 26.9232ZM89.7863 33.7684C91.108 33.7684 91.7758 33.3232 91.7758 32.4327C91.7897 32.0571 91.6089 31.6953 91.2889 31.4867C90.8715 31.2362 90.3706 31.1249 89.8836 31.1527H88.4089V33.7266C88.8541 33.7545 89.3132 33.7684 89.7863 33.7684Z" fill="white"/>
<path d="M101.654 25.1423L105.856 35.2849C105.3 35.4101 104.729 35.4658 104.159 35.4797C103.839 35.4797 103.505 35.4519 103.185 35.3962L102.378 33.3649H98.176L97.3691 35.3962C96.9656 35.438 96.576 35.4658 96.1726 35.4658C95.6995 35.4797 95.2265 35.4241 94.7812 35.2849L99.0108 25.1423C99.456 25.0727 99.9152 25.0449 100.374 25.0449C100.806 25.0449 101.237 25.0727 101.654 25.1423ZM98.9969 31.3893H101.571L100.625 29.0241L100.277 28.0362L99.9569 29.0241L98.9969 31.3893Z" fill="white"/>
<path d="M115.512 25.0587C115.957 25.0587 116.403 25.0865 116.848 25.1561V35.3404C116.013 35.4795 115.164 35.5213 114.329 35.4656L109.961 29.6361L109.585 29.0239L109.655 29.7613V35.3821C109.223 35.4378 108.778 35.4795 108.333 35.4795C107.902 35.4795 107.47 35.4378 107.039 35.3821V25.2256C107.443 25.1143 107.846 25.0587 108.249 25.0448C108.681 25.0169 109.126 25.0308 109.557 25.0726L113.912 31.0274L114.302 31.6534L114.232 30.8326V25.1421C114.663 25.1004 115.095 25.0726 115.512 25.0587Z" fill="white"/>
<path d="M124.666 29.9423L129.48 35.3128C128.826 35.4102 128.158 35.4519 127.49 35.438L126.099 35.4101L122.621 31.4867L121.828 32.0154V35.4241C121.397 35.4936 120.965 35.5215 120.52 35.5215C120.075 35.5215 119.63 35.4936 119.198 35.4241V25.1841C119.616 25.1145 120.047 25.0867 120.464 25.0867C120.923 25.0867 121.369 25.1145 121.828 25.1841V29.3441C122.607 28.7875 123.317 28.1475 123.984 27.4658C124.652 26.7423 125.264 25.9632 125.821 25.1562C126.238 25.1284 126.67 25.1145 127.143 25.1145C127.727 25.1145 128.325 25.1423 128.91 25.2119C127.727 26.951 126.308 28.551 124.666 29.9423Z" fill="white"/>
<path d="M27.9404 30.0677V31.8347H26.1734C25.1995 31.8347 24.3926 31.0416 24.3926 30.0677C24.3926 29.0938 25.1856 28.2869 26.1595 28.2869C27.1334 28.2869 27.9404 29.0799 27.9404 30.0677Z" fill="white"/>
<path d="M29.2286 22.0557H23.1347C20.3938 22.0557 18.1816 24.2818 18.1816 27.0087V33.1165C18.1816 35.8574 20.3938 38.0696 23.1347 38.0696H34.1816V27.0087C34.1677 24.2818 31.9556 22.0557 29.2286 22.0557ZM30.6616 34.5635H26.1816C23.7051 34.5635 21.7016 32.5461 21.7016 30.0557C21.7016 28.1635 22.8982 26.48 24.679 25.84V24.5044C24.679 24.4487 24.7208 24.3931 24.7903 24.3931C24.8182 24.3931 24.846 24.407 24.8599 24.4209L25.5834 25.1583C25.6251 25.2 25.6947 25.2 25.7364 25.1583L25.7503 25.1444L26.126 24.6574C26.1538 24.6157 26.2234 24.6018 26.279 24.6296C26.2929 24.6296 26.2929 24.6435 26.3069 24.6574L26.6825 25.1444C26.7103 25.1861 26.7799 25.2 26.8216 25.1722C26.8216 25.1722 26.8356 25.1722 26.8356 25.1583L27.559 24.4209C27.6008 24.3791 27.6703 24.3791 27.7121 24.4209C27.726 24.4348 27.7399 24.4626 27.7399 24.4904V25.84C29.5208 26.48 30.7034 28.1774 30.7034 30.0696L30.6616 34.5635Z" fill="white"/>
</g>
<defs>
<clipPath id="clip0_1574_1856">
<rect width="111.304" height="16" fill="white" transform="translate(18.1816 22)"/>
</clipPath>
</defs>
</svg>
