<svg width="148" height="60" viewBox="0 0 148 60" fill="none" xmlns="http://www.w3.org/2000/svg">
<rect x="0.333008" width="147.667" height="60" rx="8" fill="#154060"/>
<g clip-path="url(#clip0_1574_1886)">
<mask id="mask0_1574_1886" style="mask-type:luminance" maskUnits="userSpaceOnUse" x="30" y="-14" width="87" height="87">
<path d="M30.876 -13.3804H116.979V72.7227H30.876V-13.3804Z" fill="white"/>
</mask>
<g mask="url(#mask0_1574_1886)">
<path d="M75.708 35.4734C75.1365 35.4734 74.6091 35.3855 74.1255 35.2097C73.6421 35.0338 73.2465 34.7701 72.8948 34.4624C72.5431 34.1107 72.2794 33.7151 72.0596 33.1877C71.8838 32.6602 71.752 32.0888 71.752 31.3855V31.0777C71.752 30.4185 71.8398 29.891 72.0596 29.3635C72.2794 28.88 72.5431 28.4844 72.8948 28.1328C73.2465 27.7811 73.686 27.5613 74.1255 27.3855C74.6091 27.2096 75.0926 27.1218 75.6201 27.1218C76.1914 27.1218 76.6751 27.2096 77.1146 27.3415C77.5541 27.4734 77.9058 27.6932 78.2135 27.9569C78.5212 28.2206 78.741 28.5284 78.9168 28.88C79.0926 29.2316 79.1805 29.6272 79.2684 30.0229H77.2464C77.1146 29.6712 76.9388 29.3635 76.719 29.1437C76.4992 28.924 76.1476 28.836 75.664 28.836C75.4003 28.836 75.1805 28.88 74.9168 28.9679C74.697 29.0558 74.4772 29.1877 74.3013 29.3635C74.1255 29.5394 73.9937 29.8031 73.9058 30.0668C73.8179 30.3306 73.7739 30.6822 73.7739 31.0777V31.3855C73.7739 31.825 73.8179 32.1767 73.9058 32.4844C73.9937 32.7921 74.1255 33.0558 74.3013 33.2317C74.4772 33.4075 74.6531 33.5833 74.9168 33.6712C75.1365 33.7591 75.4003 33.8031 75.664 33.8031C76.0596 33.8031 76.4112 33.7151 76.6751 33.4953C76.9388 33.2756 77.1585 33.0119 77.2464 32.6163H79.2684C79.2244 33.0558 79.0926 33.4515 78.9168 33.8031C78.741 34.1547 78.4772 34.4624 78.1695 34.7261C77.8618 34.9899 77.5102 35.1657 77.0707 35.2976C76.719 35.4294 76.2355 35.4734 75.708 35.4734Z" fill="white"/>
<path d="M83.4001 35.3853C82.9165 35.3853 82.521 35.3412 82.2132 35.2534C81.8616 35.1655 81.5979 35.0336 81.3781 34.8138C81.1583 34.594 80.9825 34.3303 80.8946 33.9347C80.8067 33.5831 80.7627 33.1435 80.7627 32.5721V24.7479H82.7407V32.3523C82.7407 32.616 82.7407 32.8357 82.7847 32.9677C82.8286 33.1435 82.8726 33.2753 82.9605 33.3633C83.0484 33.4511 83.1363 33.5391 83.3121 33.5831C83.444 33.627 83.6199 33.6709 83.8396 33.6709H84.1473C84.2353 33.6709 84.3231 33.6709 84.3671 33.627V35.2973C84.3231 35.2973 84.2353 35.2973 84.1473 35.3412C84.0594 35.3412 83.9715 35.3412 83.9275 35.3853H83.6638H83.4001Z" fill="white"/>
<path d="M86.8284 26.4624C86.4767 26.4624 86.169 26.3745 85.9493 26.1547C85.7295 25.9349 85.6416 25.6712 85.6416 25.3635C85.6416 25.0558 85.7295 24.7921 85.9493 24.5723C86.169 24.3526 86.4767 24.2646 86.8284 24.2646C87.1801 24.2646 87.4878 24.3526 87.7075 24.5723C87.9272 24.7921 88.0153 25.0558 88.0153 25.3635C88.0153 25.6712 87.9272 25.9349 87.7075 26.1547C87.4878 26.3745 87.1801 26.4624 86.8284 26.4624ZM85.8174 27.2976H87.7955V35.2976H85.8174V27.2976Z" fill="white"/>
<path d="M93.29 35.4734C92.7186 35.4734 92.1911 35.3855 91.7076 35.2097C91.2241 35.0338 90.8285 34.7701 90.4768 34.4624C90.1252 34.1107 89.8614 33.7151 89.6416 33.1877C89.4658 32.6602 89.334 32.0888 89.334 31.3855V31.0777C89.334 30.4185 89.4218 29.891 89.6416 29.3635C89.8614 28.88 90.1252 28.4844 90.4768 28.1328C90.8285 27.7811 91.268 27.5613 91.7076 27.3855C92.1911 27.2096 92.6746 27.1218 93.2021 27.1218C93.7735 27.1218 94.257 27.2096 94.6966 27.3415C95.1361 27.4734 95.4878 27.6932 95.7955 27.9569C96.1032 28.2206 96.323 28.5284 96.4988 28.88C96.6746 29.2316 96.7625 29.6272 96.8504 30.0229H94.8285C94.6966 29.6712 94.5208 29.3635 94.301 29.1437C94.0812 28.924 93.7296 28.836 93.246 28.836C92.9824 28.836 92.7626 28.88 92.4988 28.9679C92.279 29.0558 92.0592 29.1877 91.8834 29.3635C91.7076 29.5394 91.5757 29.8031 91.4878 30.0668C91.3999 30.3306 91.3559 30.6822 91.3559 31.0777V31.3855C91.3559 31.825 91.3999 32.1767 91.4878 32.4844C91.5757 32.7921 91.7076 33.0558 91.8834 33.2317C92.0592 33.4075 92.2351 33.5833 92.4988 33.6712C92.7186 33.7591 92.9824 33.8031 93.246 33.8031C93.6416 33.8031 93.9933 33.7151 94.257 33.4953C94.5208 33.2756 94.7405 33.0119 94.8285 32.6163H96.8504C96.8065 33.0558 96.6746 33.4515 96.4988 33.8031C96.323 34.1547 96.0592 34.4624 95.7515 34.7261C95.4439 34.9899 95.0921 35.1657 94.6527 35.2976C94.301 35.4294 93.8175 35.4734 93.29 35.4734Z" fill="white"/>
<path d="M98.2578 35.2974V24.7479H100.28V30.5941L103.181 27.2973H105.511L102.522 30.6819L105.818 35.2974H103.445L101.159 32.0446L100.28 33.0116V35.2974H98.2578Z" fill="white"/>
</g>
<path d="M46.4327 21.1877C43.4876 24.0888 42.0371 26.858 42.0371 29.6272V29.6712C42.0371 32.4404 43.4876 35.2536 46.4327 38.1547C49.3338 41.0558 52.147 42.5063 54.9162 42.5503H54.9601C57.7293 42.5503 60.5426 41.0997 63.4437 38.1547C69.2458 32.3525 69.2898 27.0339 63.4437 21.1437C60.4986 18.2427 57.6855 16.7921 54.9162 16.7921C52.103 16.7921 49.3338 18.2427 46.4327 21.1877ZM50.2568 34.2865C47.0481 31.0778 47.092 28.1767 50.2568 25.0119C53.4217 21.847 56.3228 21.8031 59.5316 25.0119C62.7404 28.2207 62.6964 31.1217 59.5316 34.2865C57.9491 35.8689 56.4107 36.6602 54.9162 36.6602C54.8759 36.6614 54.8353 36.662 54.795 36.662C53.299 36.662 51.8406 35.8703 50.2568 34.2865Z" fill="url(#paint0_linear_1574_1886)"/>
</g>
<defs>
<linearGradient id="paint0_linear_1574_1886" x1="46.3319" y1="38.6929" x2="62.7478" y2="21.4773" gradientUnits="userSpaceOnUse">
<stop stop-color="#0078FF"/>
<stop offset="1" stop-color="#00DEFF"/>
</linearGradient>
<clipPath id="clip0_1574_1886">
<rect width="67.0886" height="29" fill="white" transform="translate(40.6221 15.5)"/>
</clipPath>
</defs>
</svg>
