<svg width="148" height="60" viewBox="0 0 148 60" fill="none" xmlns="http://www.w3.org/2000/svg">
<rect width="147.667" height="60" rx="8" fill="#154060"/>
<g clip-path="url(#clip0_1574_1910)">
<path d="M55.6133 24.4137C55.6023 23.3951 55.2867 22.3686 54.392 21.7979C53.4973 21.2274 52.3629 21.2529 51.6776 22.0993C51.6221 22.1677 51.5032 22.2857 51.5381 22.3861C51.573 22.4866 51.7888 22.4626 51.8792 22.5073C51.95 22.5458 52.0079 22.6044 52.0458 22.6759C52.0835 22.7473 52.0995 22.8285 52.0917 22.9089C52.0917 23.1034 52.0837 24.9603 52.0774 27.5201L45.3513 27.4804C45.2528 26.2281 45.327 24.9681 45.5719 23.7362C45.6258 23.4653 45.6876 23.1958 45.7574 22.928C45.8335 22.6348 46.0445 22.2745 46.0224 21.9717C46.0216 21.9297 46.0078 21.889 45.9827 21.8553C45.9224 21.7804 45.8081 21.7932 45.7146 21.817C45.1334 21.9714 44.5973 22.2627 44.1505 22.6667C43.8222 22.9705 43.5453 23.3257 43.3304 23.7187C42.4674 25.2711 42.4007 27.4708 42.4007 27.4708C42.3563 28.8926 42.3008 31.7744 43.8079 34.7662C43.8079 34.7662 44.8659 36.8638 46.3761 37.3818C46.6744 37.4838 46.7552 37.4153 46.7822 37.3818C46.8995 37.2303 46.6474 36.9706 46.5728 36.8542C46.4358 36.6396 46.3166 36.4141 46.2159 36.18C46.0118 35.6947 45.8602 35.1885 45.7637 34.6706C45.4266 33.1077 45.2668 31.5116 45.2878 29.9127H52.079V35.933C52.0673 36.1283 52.1107 36.323 52.2041 36.4947C52.2977 36.6663 52.4373 36.808 52.6073 36.9037C52.8338 37.0062 53.0765 37.0683 53.3243 37.0869C53.7532 37.1547 54.1899 37.1547 54.6188 37.0869C54.8719 37.0472 55.1088 36.9368 55.3025 36.7682C55.6023 36.4892 55.607 36.1114 55.607 35.7305C55.607 32.702 55.6341 29.6832 55.6308 26.6578C55.6287 25.9119 55.6229 25.1638 55.6133 24.4137Z" fill="white"/>
<path d="M46.3112 38.131C43.5715 37.334 42.504 34.4092 41.917 31.8797C41.7901 31.3281 41.6679 30.7862 41.5997 30.2221C41.3809 28.5213 41.3903 26.6516 41.9393 25.0115C41.5219 25.1055 41.3316 25.4673 41.0874 25.7606C40.1958 26.8317 40.1245 28.0829 40.0815 29.3262C40.0078 31.2137 40.4198 33.0886 41.2777 34.7694C41.6313 35.4363 42.0626 36.0587 42.5626 36.6232C43.063 37.1792 43.6312 37.6698 44.2537 38.0832C43.2479 37.835 42.3406 37.2858 41.6521 36.5084C41.3706 36.1476 41.1145 35.7672 40.8859 35.3703C40.4512 34.6117 39.9087 33.6649 39.631 32.3977C39.5534 32.0423 39.501 31.6804 39.3614 31.666C39.1615 31.6454 38.933 32.3659 38.8855 32.5219C38.7604 32.9137 38.6947 33.322 38.6904 33.7334C38.7015 34.6897 39.4138 36.5499 41.1207 37.8123C41.1207 37.8123 42.6119 38.9154 45.1627 38.9998C45.5804 39.0031 45.9902 38.8852 46.343 38.6602C46.5634 38.5008 46.7125 38.2521 46.3112 38.131Z" fill="white"/>
<path d="M90.675 24.0589C90.6915 23.5575 90.65 23.0557 90.5513 22.5639C90.5332 22.4225 90.4962 22.2842 90.4417 22.1526C90.3504 21.93 90.1959 21.7393 89.9975 21.6043C89.8501 21.5069 89.6777 21.4542 89.5012 21.4529C89.3773 21.4529 89.2537 21.4624 89.1299 21.4624C88.9585 21.4624 88.7888 21.4624 88.6175 21.4624C88.2843 21.4624 87.9513 21.4624 87.618 21.4704C87.4702 21.4707 87.3239 21.5009 87.1875 21.5589C87.0514 21.6169 86.928 21.7017 86.8248 21.8082C86.571 22.0744 86.3712 22.4538 86.0317 23.2666C85.9745 23.4005 85.9318 23.5153 85.9001 23.5935C85.7747 23.8692 83.9821 27.7696 83.3064 28.8997C83.2573 28.9841 83.1478 29.1642 83.0082 29.1579C82.8686 29.1514 82.7607 28.9841 82.7116 28.8997C82.0357 27.7696 80.2433 23.8692 80.1163 23.5935C80.0862 23.5153 80.0433 23.4005 79.9862 23.2666C79.6531 22.4538 79.4517 22.0744 79.193 21.8082C79.0898 21.7017 78.9667 21.6169 78.8303 21.5589C78.6941 21.5009 78.5479 21.4707 78.3998 21.4704C78.0668 21.4576 77.7335 21.4704 77.4005 21.4624H76.8881C76.7644 21.4624 76.6407 21.4543 76.5168 21.4529C76.3403 21.4542 76.1679 21.5069 76.0203 21.6043C75.8212 21.7384 75.6665 21.9293 75.5761 22.1526C75.5216 22.2842 75.4848 22.4225 75.4668 22.5639C75.3683 23.0557 75.3263 23.5573 75.3413 24.0589L74.9512 36.101C74.9559 36.1908 74.9736 36.2794 75.0035 36.364C75.2081 36.9505 75.9552 37.2407 76.5232 37.2486C77.091 37.2566 77.7923 36.9809 78.035 36.4517C78.0663 36.38 78.0902 36.3051 78.1063 36.2286C78.2762 35.4109 78.3744 28.8264 78.411 25.9573C79.9734 29.1787 81.1981 31.5839 81.7629 32.6519C81.8787 32.8716 82.1245 33.3101 82.5751 33.4584C82.8492 33.5518 83.1465 33.5518 83.4207 33.4584C83.8712 33.3101 84.117 32.8716 84.2312 32.6519C84.7976 31.5901 86.0207 29.185 87.5849 25.9573C87.6213 28.8264 87.7197 35.4109 87.8894 36.2286C87.9055 36.3051 87.9294 36.38 87.9609 36.4517C88.2051 36.9857 88.8951 37.2599 89.4725 37.2486C90.0499 37.2375 90.786 36.9505 90.9923 36.364C91.0214 36.2792 91.039 36.1907 91.0447 36.101C90.9293 32.0864 90.8062 28.0724 90.675 24.0589Z" fill="white"/>
<path d="M71.8558 21.9304C71.5305 21.5174 70.9738 21.5032 70.4408 21.4873C69.9348 21.4745 69.2907 21.457 68.8878 21.9064C68.713 22.1095 68.6063 22.3627 68.5833 22.63C68.5737 25.5927 68.5647 28.5552 68.5563 31.5179C68.5642 31.9997 68.4628 32.4772 68.2596 32.9139C68.0565 33.3504 67.7571 33.7348 67.3839 34.0378C66.8817 34.4087 66.2904 34.6393 65.6707 34.7057C65.5723 34.7057 65.4707 34.7184 65.4707 34.7184H65.3121C65.3121 34.7184 65.2091 34.7184 65.1123 34.7057C64.4924 34.6393 63.9013 34.4087 63.3991 34.0378C63.0261 33.7347 62.7269 33.3502 62.5242 32.9135C62.3213 32.477 62.2201 31.9997 62.2282 31.5179L62.1998 22.63C62.177 22.3629 62.0709 22.1097 61.8969 21.9064C61.4922 21.457 60.8499 21.4745 60.3422 21.4873C59.8092 21.5032 59.2539 21.5174 58.9287 21.9304C58.7461 22.1915 58.672 22.5141 58.7225 22.8293V32.1315C58.7327 33.2549 59.1094 34.344 59.7949 35.2317C60.7229 36.4541 62.0411 36.9994 62.4472 37.1445C63.0546 37.362 63.6866 37.5022 64.3286 37.5621C65.0394 37.613 65.7531 37.613 66.4639 37.5621C67.1059 37.5022 67.738 37.362 68.3452 37.1445C68.7513 36.985 70.0697 36.4479 70.9961 35.2317C71.6823 34.3444 72.0598 33.2553 72.0699 32.1315V22.8293C72.1181 22.513 72.0413 22.1904 71.8558 21.9304Z" fill="white"/>
<path d="M108.589 26.408C108.142 24.9119 107.231 23.5987 105.987 22.6607C104.577 21.5833 102.854 21 101.083 21C99.3107 21 97.5878 21.5833 96.1775 22.6607C94.9346 23.5992 94.0226 24.9122 93.5743 26.408C92.2972 30.6957 94.2182 36.1659 98.8092 37.3742C100.3 37.7164 101.849 37.7164 103.34 37.3742C107.947 36.1659 109.866 30.6957 108.589 26.408ZM105.177 31.1898C104.701 33.2188 103.354 35.4009 101.083 35.4248C98.8108 35.4009 97.4687 33.2188 96.9881 31.1898C96.5249 29.2324 96.6104 26.9292 97.7004 25.1839C98.0483 24.5941 98.543 24.1057 99.1359 23.7662C99.7288 23.4269 100.399 23.2485 101.082 23.2485C101.764 23.2485 102.435 23.4269 103.027 23.7662C103.62 24.1057 104.115 24.5941 104.463 25.1839C105.554 26.9339 105.638 29.2371 105.177 31.1945V31.1898Z" fill="white"/>
</g>
<defs>
<clipPath id="clip0_1574_1910">
<rect width="70.2857" height="18" fill="white" transform="translate(38.6904 21)"/>
</clipPath>
</defs>
</svg>
