<svg width="149" height="60" viewBox="0 0 149 60" fill="none" xmlns="http://www.w3.org/2000/svg">
<rect x="0.666992" width="147.667" height="60" rx="8" fill="#154060"/>
<g clip-path="url(#clip0_1574_1876)">
<mask id="mask0_1574_1876" style="mask-type:luminance" maskUnits="userSpaceOnUse" x="40" y="20" width="69" height="20">
<path d="M108.786 20H40.2148V40H108.786V20Z" fill="white"/>
</mask>
<g mask="url(#mask0_1574_1876)">
<path fill-rule="evenodd" clip-rule="evenodd" d="M108.4 28.2848C108.886 28.9798 108.935 30.0753 108.42 30.9242C107.959 31.6825 105.204 34.592 104.308 35.527C103.53 36.3391 102.482 37.1524 101.449 37.1524H79.833C76.9116 37.1524 76.7354 36.1619 76.7354 33.9226V24.8386C76.7354 22.5515 77.4103 21.8904 79.4053 21.8904H101.449C102.482 21.8904 103.4 22.4174 104.456 23.4904C105.352 24.4009 108.028 27.7501 108.4 28.2848Z" fill="#33CCCC"/>
<path fill-rule="evenodd" clip-rule="evenodd" d="M108.4 28.2848C108.886 28.9798 108.935 30.0753 108.42 30.9242C107.959 31.6825 105.204 34.592 104.308 35.527C103.53 36.3391 102.482 37.1524 101.449 37.1524H79.833C76.9116 37.1524 76.7354 36.1619 76.7354 33.9226V24.8386C76.7354 22.5515 77.4103 21.8904 79.4053 21.8904H101.449C102.482 21.8904 103.4 22.4174 104.456 23.4904C105.352 24.4009 108.028 27.7501 108.4 28.2848Z" fill="url(#paint0_linear_1574_1876)"/>
<path fill-rule="evenodd" clip-rule="evenodd" d="M81.6362 25.4029V25.3431C81.6362 25.051 81.6117 24.7623 81.1331 24.7623H79.3266C78.9067 24.7623 78.8802 24.9945 78.8802 25.3553V27.7559C79.7596 26.4985 80.7347 25.9142 81.6362 25.4029ZM93.755 34.0775V33.9486H93.7563V28.1706C93.7563 25.7474 92.6911 24.536 90.5608 24.5363C89.9703 24.5307 89.39 24.6894 88.8846 24.9945C88.3775 25.3001 87.8902 25.7271 87.4229 26.2753C87.1931 25.6796 86.8467 25.2408 86.3836 24.959C85.9204 24.6772 85.3203 24.5363 84.5833 24.5363C83.7302 24.5363 82.7384 24.8351 82.0354 25.4134C81.8782 25.5709 78.8799 27.9309 78.8799 30.3546V34.0539C78.8799 34.1715 78.8231 34.6179 79.3232 34.6179H81.2039C81.7886 34.6179 81.7315 34.235 81.7315 34.0775V28.0946C82.049 27.6735 82.6976 26.6335 83.7511 26.6335C84.1554 26.6335 84.4467 26.7704 84.6247 27.0441C84.8027 27.3178 84.8921 27.7766 84.8929 28.4208V33.0938H84.8907V34.054C84.8907 34.1716 84.8339 34.618 85.3338 34.618H87.1905C87.7756 34.618 87.7185 34.2351 87.7185 34.0777V33.9488H87.7206V28.0948C88.0608 27.6737 88.7385 26.6338 89.7397 26.6338C90.1516 26.6338 90.4487 26.7706 90.631 27.0443C90.8132 27.318 90.9043 27.7769 90.904 28.421V33.094H90.9021V34.0542C90.9021 34.1719 90.8456 34.6182 91.3459 34.6182H93.2272C93.8122 34.618 93.755 34.235 93.755 34.0775ZM104.113 31.7283C103.444 33.5274 101.842 34.5328 99.8573 34.5328C96.9823 34.5328 95.0833 32.5737 95.0833 29.6355C95.0833 26.7327 97.0547 24.6287 99.7677 24.6287C102.452 24.6287 104.252 26.4977 104.366 29.5085C104.381 29.8932 104.268 30.2331 103.788 30.2331H97.6871C97.7233 31.8476 98.5017 32.7184 99.8757 32.7184C100.714 32.7184 101.21 32.3571 101.643 31.649C101.831 31.3408 102.216 31.358 102.216 31.358H103.788C104.044 31.3578 104.158 31.6085 104.113 31.7281V31.7283ZM99.7677 26.4966C98.6274 26.4966 97.8319 27.2946 97.6871 28.6013H101.775C101.666 27.4584 101.051 26.4966 99.7677 26.4966Z" fill="white"/>
<path fill-rule="evenodd" clip-rule="evenodd" d="M51.4429 21.9734C51.2013 21.5884 50.8878 21.2534 50.5196 20.9868C50.1514 20.7281 49.7471 20.5253 49.3196 20.3849C48.8448 20.2302 48.3544 20.1283 47.8573 20.0811C47.2886 20.0251 46.7175 19.9981 46.1461 20.0001H41.1385C40.6882 20.0001 40.2162 20.2958 40.2162 20.8536V28.9736C40.8506 30.3269 42.0863 31.7637 43.4911 32.4503V30.8399C43.4911 29.9902 44.1311 29.8003 44.3958 29.8003H45.8764C47.9159 29.8003 49.4726 29.372 50.5463 28.5154C51.6201 27.6601 52.1569 26.3895 52.1569 24.7038C52.16 24.2167 52.1035 23.7311 51.9887 23.2577C51.8747 22.8038 51.6905 22.3705 51.4429 21.9734ZM48.5248 26.1437C48.3519 26.4437 48.094 26.6859 47.7837 26.8397C47.4474 27.0001 47.0841 27.0964 46.7125 27.1235C46.3078 27.1596 45.8898 27.1777 45.4587 27.1777H44.0516C43.7075 27.1777 43.4911 26.8975 43.4911 26.4842V23.1644C43.4911 22.792 43.7339 22.6358 44.0249 22.6358H45.4587C45.9257 22.6358 46.3637 22.6493 46.7727 22.6763C47.1407 22.6931 47.5022 22.7803 47.8374 22.9334C48.1362 23.0756 48.3835 23.3071 48.5453 23.5958C48.7157 23.8927 48.8009 24.3118 48.801 24.8529C48.801 25.4024 48.7089 25.8326 48.5248 26.1437ZM43.4911 32.9751C41.946 32.3577 40.9101 31.6212 40.2162 30.891V34.811C40.2162 34.811 40.1591 35.4503 40.7813 35.4503H42.966C43.5653 35.4503 43.4914 34.811 43.4914 34.811V32.9751H43.4911ZM74.4526 24.2718H72.4919C72.0934 24.2718 71.8309 24.4393 71.6729 24.8775C71.5148 25.3157 69.4366 31.1038 69.4366 31.1038C69.4366 31.1038 67.4486 25.4353 67.2922 24.9964C67.1357 24.5574 66.8788 24.2718 66.416 24.2718H64.6144C63.9788 24.2718 63.9788 24.771 64.0576 24.969C64.1216 25.129 66.5887 31.8913 67.5284 34.4674C67.75 35.0757 67.8375 35.2587 67.8444 35.484C67.8512 35.7093 67.6221 36.1824 67.4639 36.4539C67.3912 36.5778 67.3077 36.6951 67.2144 36.8044C69.0566 36.2528 71.1798 34.2514 72.2778 32.0832C73.3635 29.0616 74.7952 25.07 74.8573 24.8658C74.9572 24.5351 74.9562 24.2718 74.4526 24.2718ZM65.7949 37.3794C65.6247 37.3764 65.4548 37.3641 65.286 37.3426C65.0793 37.3152 64.6926 37.3538 64.6926 37.6925V39.2064C64.6926 39.7842 64.9688 39.8227 65.1209 39.857C65.5784 39.9523 66.045 39.9974 66.5124 39.9914C67.1318 39.9914 67.6707 39.8787 68.1293 39.6534C68.5922 39.4243 69.0048 39.1049 69.3427 38.714C69.7152 38.2789 70.03 37.7974 70.2792 37.2817C70.5529 36.7275 70.8157 36.117 71.0675 35.4502C71.0675 35.4502 71.1754 35.1489 71.3532 34.6552C70.8124 35.2012 68.2633 37.6184 65.7949 37.3794ZM62.8505 26.0689C62.744 25.8159 62.5987 25.5811 62.4197 25.373C62.2414 25.1732 62.0373 24.9982 61.8127 24.8524C61.5703 24.6948 61.3133 24.5612 61.0451 24.4536C60.7712 24.3466 60.4895 24.2609 60.2025 24.1971C59.8762 24.1256 59.5452 24.0782 59.212 24.0551C58.8522 24.0284 58.4478 24.0149 57.9987 24.0146C55.0284 24.0146 53.3371 24.9534 52.9247 26.831C52.7907 27.4136 53.367 27.4478 53.367 27.4478H55.1942C55.6712 27.4478 55.6507 27.2941 55.8822 26.8627C55.9656 26.628 56.1156 26.4227 56.314 26.2719C56.6646 26.0018 57.1902 25.8667 57.8908 25.8666C58.5648 25.8666 59.0545 25.9972 59.3599 26.2582C59.6652 26.5192 59.8449 26.9157 59.899 27.4478C59.899 28.0648 59.7065 28.4764 58.9607 28.4764C57.1425 28.4103 55.1887 28.6161 54.0882 29.247C52.9878 29.8779 52.3657 31.1114 52.3657 32.436C52.3657 32.9763 52.4623 33.4494 52.6555 33.8553C52.8428 34.2532 53.1196 34.6025 53.4643 34.8756C53.8301 35.1609 54.2493 35.37 54.6973 35.4907C55.2064 35.6303 55.7324 35.6987 56.2604 35.6938C57.0512 35.6938 57.7498 35.5947 58.3564 35.3963C58.9628 35.1983 59.9012 34.5455 60.0207 34.4503V34.7983C60.0207 35.1431 60.1256 35.4507 60.5371 35.4507H62.662C63.092 35.4507 63.1877 35.1431 63.1877 34.7646V28.2185C63.1914 27.8116 63.1644 27.405 63.107 27.0022C63.0614 26.6815 62.9752 26.3679 62.8505 26.0689ZM59.953 32.4871C59.953 32.4871 59.4043 33.6269 57.4461 33.6269C56.9073 33.6269 56.4693 33.5053 56.1321 33.2621C55.7948 33.0189 55.6263 32.6404 55.6266 32.1266C55.6266 31.4593 55.9007 30.9883 56.449 30.7135C56.9967 30.439 58.0934 30.2822 58.9152 30.3014C59.737 30.3206 59.953 30.8399 59.953 31.1985V32.4874V32.4871Z" fill="white"/>
</g>
</g>
<defs>
<linearGradient id="paint0_linear_1574_1876" x1="119.376" y1="26.297" x2="115.179" y2="51.6447" gradientUnits="userSpaceOnUse">
<stop offset="0.47231" stop-color="#00CCCC"/>
<stop offset="1" stop-color="#3399FF"/>
</linearGradient>
<clipPath id="clip0_1574_1876">
<rect width="68.5714" height="20" fill="white" transform="translate(40.2148 20)"/>
</clipPath>
</defs>
</svg>
