<svg width="22" height="22" viewBox="0 0 22 22" fill="none" xmlns="http://www.w3.org/2000/svg">
    <path d="M11.0005 0.75H11C8.97275 0.75 6.99101 1.35115 5.30541 2.47744C3.61981 3.60372 2.30604 5.20455 1.53024 7.07749C0.754441 8.95044 0.551457 11.0114 0.946955 12.9997C1.34245 14.988 2.31867 16.8144 3.75216 18.2478C5.18565 19.6813 7.01202 20.6576 9.00033 21.053C10.9886 21.4485 13.0496 21.2456 14.9225 20.4698C16.7955 19.694 18.3963 18.3802 19.5226 16.6946C20.6489 15.009 21.25 13.0273 21.25 11V10.9995C21.2471 8.28202 20.1664 5.6767 18.2448 3.75517C16.3233 1.83364 13.718 0.75287 11.0005 0.75ZM9.67708 14.1771L9.67688 14.1773C9.65366 14.2005 9.62609 14.219 9.59574 14.2315C9.56539 14.2441 9.53286 14.2506 9.5 14.2506C9.46714 14.2506 9.43461 14.2441 9.40427 14.2315C9.37392 14.219 9.34635 14.2005 9.32313 14.1773L9.32293 14.1771L7.07293 11.9271C7.02597 11.8801 6.99959 11.8164 6.99959 11.75C6.99959 11.6836 7.02597 11.6199 7.07293 11.5729C7.11989 11.526 7.18359 11.4996 7.25 11.4996C7.31638 11.4996 7.38003 11.5259 7.42698 11.5728C7.42701 11.5729 7.42704 11.5729 7.42708 11.5729L9.14635 13.2931L9.49994 13.6469L9.85359 13.2932L14.5729 8.57293C14.5962 8.54967 14.6238 8.53123 14.6542 8.51864C14.6846 8.50606 14.7171 8.49958 14.75 8.49958C14.7829 8.49958 14.8155 8.50606 14.8458 8.51864C14.8762 8.53123 14.9038 8.54967 14.9271 8.57293C14.9503 8.59618 14.9688 8.62379 14.9814 8.65417L15.4433 8.46283L14.9814 8.65417C14.9939 8.68455 15.0004 8.71712 15.0004 8.75C15.0004 8.78288 14.9939 8.81545 14.9814 8.84583L15.4433 9.03717L14.9814 8.84583C14.9688 8.87621 14.9503 8.90382 14.9271 8.92707L9.67708 14.1771Z"
          fill="#120A44" stroke="white"/>
</svg>
