<svg width="149" height="60" viewBox="0 0 149 60" fill="none" xmlns="http://www.w3.org/2000/svg">
<rect x="0.666992" width="147.667" height="60" rx="8" fill="#154060"/>
<g clip-path="url(#clip0_1574_1917)">
<mask id="mask0_1574_1917" style="mask-type:luminance" maskUnits="userSpaceOnUse" x="64" y="15" width="21" height="30">
<path d="M85 15H64V45H85V15Z" fill="white"/>
</mask>
<g mask="url(#mask0_1574_1917)">
<mask id="mask1_1574_1917" style="mask-type:luminance" maskUnits="userSpaceOnUse" x="64" y="15" width="21" height="30">
<path d="M85 15H64V45H85V15Z" fill="white"/>
</mask>
<g mask="url(#mask1_1574_1917)">
<path fill-rule="evenodd" clip-rule="evenodd" d="M84.3306 27.543C84.3306 31.2431 83.488 33.9947 81.803 35.798C80.1183 37.5947 77.5195 38.4929 74.0065 38.4926C70.7281 38.4926 68.2409 37.5944 66.5449 35.798C64.8489 34.0017 64.0016 31.2922 64.0029 27.6695V15.5145C64.0032 15.3777 64.0575 15.2466 64.1539 15.1498C64.2502 15.053 64.3809 14.9984 64.5173 14.998H70.4601C70.5966 14.9984 70.7273 15.053 70.8238 15.1498C70.9203 15.2465 70.9746 15.3777 70.975 15.5145V27.935C70.975 29.414 71.2477 30.5525 71.8029 31.3556C72.0784 31.7218 72.4336 32.0202 72.8415 32.2278C73.2494 32.4356 73.6992 32.5471 74.1565 32.554C74.6139 32.5609 75.0668 32.463 75.4808 32.2677C75.8946 32.0724 76.2587 31.7849 76.545 31.427C77.0877 30.6734 77.3581 29.5629 77.3565 28.0955V25.77H84.3306V27.543Z" fill="white"/>
<path fill-rule="evenodd" clip-rule="evenodd" d="M83.7902 24.4115H77.3564V15.54C77.3568 15.3967 77.4137 15.2594 77.5148 15.1581C77.6159 15.0568 77.7529 14.9998 77.8957 14.9995H78.8587C78.8596 16.4541 79.4363 17.8489 80.462 18.8772C81.4877 19.9054 82.8784 20.483 84.3285 20.483V24.4115H83.7902Z" fill="white"/>
<path fill-rule="evenodd" clip-rule="evenodd" d="M80.2286 14.9995H83.7899C83.9326 14.9999 84.0695 15.057 84.1704 15.1583C84.2714 15.2595 84.3282 15.3968 84.3287 15.54V19.118C83.241 19.118 82.1978 18.6846 81.4287 17.913C80.6596 17.1415 80.2275 16.0951 80.2275 15.004L80.2286 14.9995Z" fill="#F4821F"/>
<path fill-rule="evenodd" clip-rule="evenodd" d="M65.1688 44.3959C65.9558 44.3959 66.3361 43.9559 66.3361 43.3104V41.7549H65.7729V43.2954C65.7683 43.4538 65.7024 43.6043 65.5891 43.7147C65.4758 43.8252 65.324 43.8869 65.166 43.8869C65.008 43.8869 64.8563 43.8252 64.7429 43.7147C64.6296 43.6043 64.5637 43.4538 64.5592 43.2954V41.7549H64.0029V43.3149C64.0029 43.9524 64.3817 44.3959 65.1688 44.3959ZM69.7354 44.3489V43.8649H68.4888L69.71 42.1994V41.7559H67.7661V42.2424H68.9873L67.7656 43.9029V44.3489H69.7354ZM72.3666 44.3959C72.5883 44.4009 72.8068 44.3439 72.9979 44.2313C73.189 44.1185 73.3449 43.9546 73.4482 43.7579L72.9747 43.5284C72.917 43.6407 72.8298 43.7352 72.7226 43.8016C72.6154 43.868 72.4921 43.9039 72.3661 43.9054C72.1489 43.8936 71.9445 43.7987 71.7948 43.6403C71.6452 43.4818 71.5618 43.2719 71.5618 43.0536C71.5618 42.8354 71.6452 42.6255 71.7948 42.467C71.9445 42.3086 72.1489 42.2137 72.3661 42.2019C72.492 42.2042 72.615 42.2405 72.7221 42.3069C72.8291 42.3734 72.9164 42.4674 72.9747 42.5794L73.4493 42.3459C73.3461 42.1493 73.1901 41.9858 72.9988 41.8737C72.8077 41.7616 72.589 41.7056 72.3676 41.7119C72.0162 41.7065 71.6767 41.8401 71.4226 42.0837C71.1685 42.3274 71.0201 42.6615 71.0096 43.014C70.999 43.3664 71.1271 43.7089 71.3662 43.9674C71.6053 44.2259 71.9362 44.3796 72.2874 44.3954C72.3143 44.3954 72.3407 44.3954 72.3676 44.3954L72.3666 44.3959ZM77.1765 44.3489L76.1797 41.7549H75.4903L74.49 44.3489H75.118L75.2805 43.9094H76.3895L76.5485 44.3489H77.1765ZM76.2385 43.4234H75.4315L75.8352 42.3069L76.2385 43.4234ZM80.8933 44.9999L79.9463 43.3619C80.1159 43.3208 80.2656 43.2211 80.369 43.0803C80.4725 42.9395 80.5231 42.7665 80.512 42.5919C80.5161 42.4859 80.4993 42.3801 80.4626 42.2806C80.4259 42.1811 80.37 42.0898 80.2981 42.012C80.2263 41.9342 80.1398 41.8713 80.0437 41.827C79.9476 41.7827 79.8436 41.7579 79.738 41.7539C79.7066 41.7519 79.6752 41.7519 79.6438 41.7539H78.4321V44.3479H78.9804V43.4274H79.3836L80.2588 44.9994L80.8933 44.9999ZM79.5606 42.9419H78.9828V42.2419H79.5591C79.6048 42.237 79.6512 42.2414 79.6953 42.2545C79.7395 42.2676 79.7807 42.2894 79.8165 42.3184C79.8523 42.3475 79.882 42.3834 79.904 42.424C79.926 42.4646 79.9398 42.5092 79.9446 42.5552C79.9494 42.6011 79.9451 42.6476 79.932 42.6919C79.919 42.7362 79.8973 42.7775 79.8683 42.8134C79.8393 42.8493 79.8035 42.8792 79.7631 42.9012C79.7226 42.9233 79.6781 42.9371 79.6323 42.9419C79.608 42.9444 79.5834 42.9444 79.5591 42.9419H79.5606ZM82.9594 44.3494C83.7698 44.3494 84.3321 43.8364 84.3321 43.0544C84.3321 42.2724 83.7688 41.7544 82.9594 41.7544H81.94V44.3484L82.9594 44.3494ZM82.9594 43.8634H82.4903V42.2419H82.9594C83.1594 42.227 83.357 42.2924 83.509 42.4236C83.661 42.5549 83.7547 42.7413 83.7698 42.9419C83.7728 42.979 83.7728 43.0163 83.7698 43.0534C83.7744 43.1555 83.7589 43.2575 83.7241 43.3536C83.6894 43.4496 83.6361 43.5379 83.5673 43.6133C83.4985 43.6887 83.4156 43.7497 83.3232 43.7929C83.2309 43.836 83.1309 43.8605 83.0292 43.8649C83.0054 43.8662 82.9816 43.8662 82.9579 43.8649L82.9594 43.8634Z" fill="white"/>
<path fill-rule="evenodd" clip-rule="evenodd" d="M85.0011 41.7064V41.7149C85.0013 41.8106 84.9732 41.9042 84.9204 41.9838C84.8675 42.0635 84.7923 42.1256 84.7042 42.1624C84.6162 42.1991 84.5193 42.2088 84.4257 42.1903C84.3321 42.1717 84.2461 42.1258 84.1786 42.0581C84.1111 41.9906 84.0651 41.9044 84.0465 41.8106C84.0278 41.7168 84.0373 41.6195 84.0737 41.5311C84.1102 41.4427 84.172 41.3671 84.2512 41.314C84.3305 41.2608 84.4237 41.2324 84.5191 41.2324H85.0006L85.0011 41.7064Z" fill="white"/>
</g>
</g>
</g>
<defs>
<clipPath id="clip0_1574_1917">
<rect width="21" height="30" fill="white" transform="translate(64 15)"/>
</clipPath>
</defs>
</svg>
