<svg width="148" height="60" viewBox="0 0 148 60" fill="none" xmlns="http://www.w3.org/2000/svg">
<rect x="0.333008" width="147.667" height="60" rx="8" fill="#154060"/>
<g clip-path="url(#clip0_1574_1932)">
<path d="M70.29 38.2526H65.7492L68.5872 20.8116H73.1284L70.29 38.2526ZM61.9293 20.8116L57.6003 32.8076L57.088 30.2244L57.0885 30.2254L55.5606 22.382C55.5606 22.382 55.3759 20.8116 53.4066 20.8116H46.25L46.166 21.107C46.166 21.107 48.3545 21.5623 50.9158 23.1005L54.8608 38.253H59.5919L66.8162 20.8116H61.9293ZM97.6448 38.2526H101.814L98.1789 20.8112H94.5288C92.8432 20.8112 92.4326 22.1109 92.4326 22.1109L85.6604 38.2526H90.3939L91.3405 35.6619H97.1129L97.6448 38.2526ZM92.6482 32.0831L95.034 25.5563L96.3763 32.0831H92.6482ZM86.0155 25.0058L86.6635 21.2604C86.6635 21.2604 84.6639 20.5 82.5794 20.5C80.3261 20.5 74.9749 21.4849 74.9749 26.2738C74.9749 30.7796 81.2554 30.8356 81.2554 33.2023C81.2554 35.569 75.622 35.145 73.7629 33.6525L73.0878 37.5686C73.0878 37.5686 75.1154 38.5535 78.2132 38.5535C81.3119 38.5535 85.9865 36.9491 85.9865 32.5823C85.9865 28.0476 79.6496 27.6254 79.6496 25.6538C79.6501 23.6818 84.0724 23.9351 86.0155 25.0058Z" fill="white"/>
<path d="M57.0885 30.2252L55.5606 22.3819C55.5606 22.3819 55.3759 20.8115 53.4066 20.8115H46.25L46.166 21.1068C46.166 21.1068 49.6058 21.8197 52.9051 24.4906C56.0598 27.0435 57.0885 30.2252 57.0885 30.2252Z" fill="#E6A540"/>
</g>
<defs>
<clipPath id="clip0_1574_1932">
<rect width="56" height="19" fill="white" transform="translate(46.166 20.5)"/>
</clipPath>
</defs>
</svg>
